<svg preserveAspectRatio="none" width="100%" height="100%" overflow="visible" style="display: block;" viewBox="0 0 28.801 28.8014" fill="none" xmlns="http://www.w3.org/2000/svg">
<g id="Group">
<path id="Vector" d="M22.1546 28.801H28.801V22.1546H22.1546V28.801ZM24.3708 24.3693H26.5848V26.5856H24.3708V24.3693Z" fill="var(--fill-0, #39D353)"/>
<path id="Vector_2" d="M28.8005 8.862H26.5843V19.9386H28.8005V8.862Z" fill="var(--fill-0, #39D353)"/>
<path id="Vector_3" d="M26.5843 6.64716H24.3703V8.86116H26.5843V6.64716Z" fill="var(--fill-0, #39D353)"/>
<path id="Vector_4" d="M24.3686 11.0777H22.1546V13.2917H24.3686V11.0777Z" fill="var(--fill-0, #39D353)"/>
<path id="Vector_5" d="M2.21621 22.1546H0V24.3686H2.21621V22.1546Z" fill="var(--fill-0, #39D353)"/>
<path id="Vector_6" d="M2.21621 17.724H0V19.938H2.21621V17.724Z" fill="var(--fill-0, #39D353)"/>
<path id="Vector_7" d="M2.21621 26.5851H0V28.8014H2.21621V26.5851Z" fill="var(--fill-0, #39D353)"/>
<path id="Vector_8" d="M4.4306 24.3685H2.2166V26.5847H4.4306V24.3685Z" fill="var(--fill-0, #39D353)"/>
<path id="Vector_9" d="M2.21621 8.862H0V15.5084H2.21621V8.862Z" fill="var(--fill-0, #39D353)"/>
<path id="Vector_10" d="M8.8625 26.5851H6.64629V28.8014H8.8625V26.5851Z" fill="var(--fill-0, #39D353)"/>
<path id="Vector_11" d="M19.9402 26.5851H17.724V28.8014H19.9402V26.5851Z" fill="var(--fill-0, #39D353)"/>
<path id="Vector_12" d="M11.0769 24.3685H8.86289V26.5847H11.0769V24.3685Z" fill="var(--fill-0, #39D353)"/>
<path id="Vector_13" d="M17.7236 24.3685H15.5074V26.5847H17.7236V24.3685Z" fill="var(--fill-0, #39D353)"/>
<path id="Vector_14" d="M13.2939 22.1546H11.0777V24.3686H13.2939V22.1546Z" fill="var(--fill-0, #39D353)"/>
<path id="Vector_15" d="M19.9402 22.1546H17.724V24.3686H19.9402V22.1546Z" fill="var(--fill-0, #39D353)"/>
<path id="Vector_16" d="M24.3705 17.724H17.724V19.938H24.3705V17.724Z" fill="var(--fill-0, #39D353)"/>
<path id="Vector_17" d="M28.8005 0H26.5843V6.64643H28.8005V0Z" fill="var(--fill-0, #39D353)"/>
<path id="Vector_18" d="M6.64643 0H0V6.64643H6.64643V0ZM4.43021 4.43095H2.21621V2.21474H4.43021V4.43095Z" fill="var(--fill-0, #39D353)"/>
<g id="Group_2">
<path id="Vector_19" d="M6.64707 11.0783H11.078V8.86206H6.64707H4.43086V17.7247V19.9387H11.078V17.7247H6.64707V11.0783Z" fill="var(--fill-0, #39D353)"/>
<path id="Vector_20" d="M13.2942 11.0787H11.078V17.7251H13.2942V11.0787Z" fill="var(--fill-0, #39D353)"/>
</g>
<path id="Vector_21" d="M22.1542 8.862H17.724V11.0782H22.1542V8.862Z" fill="var(--fill-0, #39D353)"/>
<path id="Vector_22" d="M17.7236 11.0777H15.5074V17.7241H17.7236V11.0777Z" fill="var(--fill-0, #39D353)"/>
<path id="Vector_23" d="M22.1543 4.43054H8.86289V6.64676H22.1543H24.3705V4.43054H22.1543Z" fill="var(--fill-0, #39D353)"/>
<path id="Vector_24" d="M11.0769 0H8.86289V2.214H11.0769V0Z" fill="var(--fill-0, #39D353)"/>
<path id="Vector_25" d="M24.3708 0H22.1546V2.214H24.3708V0Z" fill="var(--fill-0, #39D353)"/>
<path id="Vector_26" d="M19.9399 0H13.2935V2.214H19.9399V0Z" fill="var(--fill-0, #39D353)"/>
</g>
</svg>
