<svg preserveAspectRatio="none" width="100%" height="100%" overflow="visible" style="display: block;" viewBox="0 0 15.9928 19.0265" fill="none" xmlns="http://www.w3.org/2000/svg">
<g id="Group">
<path id="Vector" d="M15.9507 4.65245C15.9507 4.56509 15.9507 4.56509 15.8665 4.56509C15.6559 4.56509 15.4454 4.54325 15.2559 4.49957C14.498 4.39038 12.098 3.08003 11.677 0.917963C11.677 0.874285 11.5717 0.350147 11.5717 0.109917C11.5717 0.000721955 11.5717 0.000721953 11.4665 0.000721953C11.4454 0.000721953 11.4244 0.000721953 11.4033 0.000721953C10.4559 0.000721953 9.50857 0.000721953 8.58225 0.000721953C8.39278 0.000721953 8.41383 -0.0211171 8.41383 0.175435C8.41383 4.41222 8.41383 8.67084 8.41383 12.9076C8.41383 13.0605 8.41383 13.2134 8.39278 13.3881C8.24541 14.218 7.84541 14.8731 7.17172 15.3099C6.58225 15.6812 5.92962 15.7904 5.25593 15.6593C5.04541 15.6157 4.83488 15.5283 4.62435 15.4409C4.6033 15.4191 4.58225 15.4191 4.58225 15.3973C4.51909 15.3318 4.43488 15.2881 4.37172 15.2444C3.50857 14.6111 3.08751 13.7375 3.21383 12.6455C3.34014 11.5318 3.95067 10.7892 4.9612 10.3961C5.25593 10.2869 5.57172 10.2432 5.90857 10.2432C6.11909 10.2651 6.32962 10.2869 6.51909 10.3306C6.58225 10.3524 6.62435 10.3306 6.62435 10.2432C6.62435 10.2214 6.62435 10.1996 6.62435 10.1559C6.62435 9.39153 6.6033 7.73176 6.6033 7.73176C6.6033 7.51337 6.6033 7.29497 6.6033 7.07658C6.6033 7.01107 6.58225 7.01107 6.51909 6.98923C6.14014 6.94555 5.7612 6.92371 5.38225 6.96739C4.85593 7.01107 4.35067 7.12026 3.84541 7.31681C3.04541 7.62256 2.35067 8.08118 1.74014 8.69268C1.21383 9.21681 0.813828 9.82831 0.519092 10.5053C0.224355 11.1605 0.0769864 11.8593 0.0348811 12.5582C-0.00722412 12.9076 -0.00722412 13.2134 0.0138285 13.5191C0.0559338 13.9559 0.140144 14.3708 0.26646 14.7858C0.624355 15.9651 1.27699 16.9478 2.22436 17.7122C2.32962 17.7996 2.41383 17.8869 2.51909 17.9306C2.5612 17.9743 2.62435 18.018 2.66646 18.0616C2.81383 18.1708 2.98225 18.28 3.15067 18.3674C4.2033 18.9134 5.29804 19.1318 6.47699 18.9789C7.99278 18.7823 9.25593 18.0835 10.2454 16.9042C11.1717 15.7685 11.6349 14.4582 11.6349 12.9731C11.6559 10.8547 11.6349 8.73635 11.6349 6.6398C11.6349 6.59612 11.6138 6.50877 11.6559 6.48693C11.698 6.46509 11.7401 6.53061 11.7822 6.55245C12.5401 7.07658 13.3612 7.44785 14.2454 7.6444C14.7507 7.77543 15.277 7.84095 15.8033 7.84095C15.9717 7.84095 15.9928 7.84095 15.9928 7.66624C15.9928 6.90187 15.9507 4.849 15.9507 4.65245Z" fill="var(--fill-0, #39D353)"/>
</g>
</svg>
