<svg preserveAspectRatio="none" width="100%" height="100%" overflow="visible" style="display: block;" viewBox="0 0 64 64" fill="none" xmlns="http://www.w3.org/2000/svg">
<g id="Group 43057">
<foreignObject x="-24" y="-24" width="112" height="112"><div xmlns="http://www.w3.org/1999/xhtml" style="backdrop-filter:blur(12px);clip-path:url(#bgblur_0_38_251_clip_path);height:100%;width:100%"></div></foreignObject><rect id="Rectangle 42494" data-figma-bg-blur-radius="24" x="0.5" y="0.5" width="63" height="63" rx="31.5" fill="url(#paint0_linear_38_251)" fill-opacity="0.2" stroke="url(#paint1_linear_38_251)"/>
<path id="Vector" d="M32 42C26.4771 42 22 37.5228 22 32C22 26.4771 26.4771 22 32 22C37.5228 22 42 26.4771 42 32C42 37.5228 37.5228 42 32 42ZM32 40C36.4183 40 40 36.4183 40 32C40 27.5817 36.4183 24 32 24C27.5817 24 24 27.5817 24 32C24 36.4183 27.5817 40 32 40ZM33 32H37V34H31V27H33V32Z" fill="var(--fill-0, #39D353)"/>
</g>
<defs>
<clipPath id="bgblur_0_38_251_clip_path" transform="translate(24 24)"><rect x="0.5" y="0.5" width="63" height="63" rx="31.5"/>
</clipPath><linearGradient id="paint0_linear_38_251" x1="64" y1="32" x2="0" y2="32" gradientUnits="userSpaceOnUse">
<stop stop-color="#984BFF"/>
<stop offset="1" stop-color="#5217A0"/>
</linearGradient>
<linearGradient id="paint1_linear_38_251" x1="45.8915" y1="-25.7778" x2="-6.26653" y2="-8.34123" gradientUnits="userSpaceOnUse">
<stop stop-color="#8532F2"/>
<stop offset="1" stop-color="#8532F2" stop-opacity="0"/>
</linearGradient>
</defs>
</svg>
