<svg preserveAspectRatio="none" width="100%" height="100%" overflow="visible" style="display: block;" viewBox="0 0 16 24" fill="none" xmlns="http://www.w3.org/2000/svg">
<g id="Group 27626">
<path id="Vector 1900" d="M9.52054 2H13.4795C14.6677 2 15.2618 2 15.6309 2.36913C16 2.73825 16 3.33234 16 4.52054V16.939C16 19.8848 16 21.3578 15.1634 21.6564C14.3268 21.955 13.3941 20.815 11.5287 18.5351L7.56975 13.6964C7.28772 13.3517 7.14671 13.1793 7.07335 12.9738C7 12.7683 7 12.5456 7 12.1003V4.52054C7 3.33234 7 2.73825 7.36912 2.36913C7.73825 2 8.33234 2 9.52054 2Z" fill="var(--fill-0, #721AE7)"/>
<path id="Vector 1901" d="M6.47946 22H2.52054C1.33234 22 0.738248 22 0.369124 21.6309C0 21.2618 0 20.6677 0 19.4795V7.06105C0 4.11518 0 2.64224 0.836583 2.34361C1.67317 2.04498 2.60588 3.18497 4.47132 5.46495L8.43025 10.3036C8.71228 10.6483 8.85329 10.8207 8.92665 11.0262C9 11.2317 9 11.4544 9 11.8997V19.4795C9 20.6677 9 21.2618 8.63088 21.6309C8.26175 22 7.66766 22 6.47946 22Z" fill="var(--fill-0, #39D353)"/>
</g>
</svg>
