<svg preserveAspectRatio="none" width="100%" height="100%" overflow="visible" style="display: block;" viewBox="0 0 24 24" fill="none" xmlns="http://www.w3.org/2000/svg">
<g id="Group 381">
<g id="Rectangle 445">
</g>
<path id="Vector" d="M12.0018 7.38503C9.44824 7.38503 7.38776 9.4455 7.38776 12C7.38776 14.5545 9.44824 16.6149 12.0018 16.6149C14.5554 16.6149 16.6158 14.5545 16.6158 12C16.6158 9.4455 14.5554 7.38503 12.0018 7.38503ZM12.0018 15.0003C10.3516 15.0003 9.00196 13.6548 9.00196 12C9.00196 10.3452 10.3471 8.99968 12.0018 8.99968C13.6565 8.99968 15.0017 10.3452 15.0017 12C15.0017 13.6548 13.652 15.0003 12.0018 15.0003ZM17.8809 7.19626C17.8809 7.79472 17.3987 8.27268 16.8048 8.27268C16.2065 8.27268 15.7287 7.7907 15.7287 7.19626C15.7287 6.60181 16.2101 6.11983 16.8048 6.11983C17.3987 6.11983 17.8809 6.60181 17.8809 7.19626ZM20.9366 8.28875C20.8682 6.84682 20.5389 5.56957 19.4825 4.51724C18.4307 3.46491 17.1539 3.13556 15.7125 3.06326C14.2269 2.97891 9.77306 2.97891 8.28753 3.06326C6.84969 3.13154 5.57291 3.4609 4.51747 4.51323C3.46113 5.56555 3.13542 6.84281 3.06343 8.28473C2.97886 9.77084 2.97886 14.2252 3.06343 15.7113C3.13182 17.1532 3.46113 18.4304 4.51747 19.4828C5.57291 20.5351 6.84609 20.8645 8.28753 20.9368C9.77306 21.0211 14.2269 21.0211 15.7125 20.9368C17.1539 20.8684 18.4307 20.5391 19.4825 19.4828C20.5353 18.4304 20.8646 17.1532 20.9366 15.7113C21.0211 14.2252 21.0211 9.77486 20.9366 8.28875ZM19.0173 17.3058C18.7042 18.0931 18.0978 18.6995 17.3069 19.0169C16.1219 19.4868 13.311 19.3783 12.0018 19.3783C10.6926 19.3783 7.87814 19.4828 6.69763 19.0169C5.91033 18.7036 5.30388 18.0971 4.98716 17.3058C4.51747 16.1209 4.62544 13.3094 4.62544 12C4.62544 10.6906 4.52107 7.87505 4.98716 6.69419C5.30028 5.90696 5.90673 5.30046 6.69763 4.98315C7.88173 4.51323 10.6926 4.62167 12.0018 4.62167C13.311 4.62167 16.1255 4.51724 17.3069 4.98315C18.0933 5.29644 18.6997 5.90294 19.0173 6.69419C19.487 7.87907 19.3782 10.6906 19.3782 12C19.3782 13.3094 19.487 16.125 19.0173 17.3058Z" fill="var(--fill-0, #39D353)"/>
</g>
</svg>
