<svg preserveAspectRatio="none" width="100%" height="100%" overflow="visible" style="display: block;" viewBox="0 0 30.6487 30.6496" fill="none" xmlns="http://www.w3.org/2000/svg">
<g id="Group">
<path id="Vector" d="M23.5758 30.6486H30.6487V23.5757H23.5758V30.6486ZM25.9342 25.9326H28.2903V28.291H25.9342V25.9326Z" fill="var(--fill-0, #5BF175)"/>
<path id="Vector_2" d="M30.6487 9.43018H28.2903V21.2177H30.6487V9.43018Z" fill="var(--fill-0, #5BF175)"/>
<path id="Vector_3" d="M28.2903 7.07373H25.9342V9.42981H28.2903V7.07373Z" fill="var(--fill-0, #5BF175)"/>
<path id="Vector_4" d="M25.9326 11.7885H23.5765V14.1445H25.9326V11.7885Z" fill="var(--fill-0, #5BF175)"/>
<path id="Vector_5" d="M2.35844 23.5757H0V25.9318H2.35844V23.5757Z" fill="var(--fill-0, #5BF175)"/>
<path id="Vector_6" d="M2.35844 18.8614H0V21.2175H2.35844V18.8614Z" fill="var(--fill-0, #5BF175)"/>
<path id="Vector_7" d="M2.35844 28.2911H0V30.6496H2.35844V28.2911Z" fill="var(--fill-0, #5BF175)"/>
<path id="Vector_8" d="M4.71455 25.9329H2.35847V28.2913H4.71455V25.9329Z" fill="var(--fill-0, #5BF175)"/>
<path id="Vector_9" d="M2.35844 9.43018H0V16.5031H2.35844V9.43018Z" fill="var(--fill-0, #5BF175)"/>
<path id="Vector_10" d="M9.43139 28.2911H7.07295V30.6496H9.43139V28.2911Z" fill="var(--fill-0, #5BF175)"/>
<path id="Vector_11" d="M21.2197 28.2911H18.8612V30.6496H21.2197V28.2911Z" fill="var(--fill-0, #5BF175)"/>
<path id="Vector_12" d="M11.7875 25.9329H9.43142V28.2913H11.7875V25.9329Z" fill="var(--fill-0, #5BF175)"/>
<path id="Vector_13" d="M18.8612 25.9329H16.5028V28.2913H18.8612V25.9329Z" fill="var(--fill-0, #5BF175)"/>
<path id="Vector_14" d="M14.1467 23.5757H11.7883V25.9318H14.1467V23.5757Z" fill="var(--fill-0, #5BF175)"/>
<path id="Vector_15" d="M21.2197 23.5757H18.8612V25.9318H21.2197V23.5757Z" fill="var(--fill-0, #5BF175)"/>
<path id="Vector_16" d="M25.9342 18.8614H18.8612V21.2175H25.9342V18.8614Z" fill="var(--fill-0, #5BF175)"/>
<path id="Vector_17" d="M30.6487 0H28.2903V7.07296H30.6487V0Z" fill="var(--fill-0, #5BF175)"/>
<path id="Vector_18" d="M7.07296 0H0V7.07296H7.07296V0ZM4.71452 4.71531H2.35844V2.35687H4.71452V4.71531Z" fill="var(--fill-0, #5BF175)"/>
<g id="Group_2">
<path id="Vector_19" d="M7.07296 11.7884H11.7883V9.42993H7.07296H4.71453V18.8613V21.2174H11.7883V18.8613H7.07296V11.7884Z" fill="var(--fill-0, #5BF175)"/>
<path id="Vector_20" d="M14.1467 11.7884H11.7883V18.8613H14.1467V11.7884Z" fill="var(--fill-0, #5BF175)"/>
</g>
<path id="Vector_21" d="M23.5758 9.43018H18.8612V11.7886H23.5758V9.43018Z" fill="var(--fill-0, #5BF175)"/>
<path id="Vector_22" d="M18.8612 11.7885H16.5028V18.8614H18.8612V11.7885Z" fill="var(--fill-0, #5BF175)"/>
<path id="Vector_23" d="M23.5758 4.71545H9.43142V7.07389H23.5758H25.9342V4.71545H23.5758Z" fill="var(--fill-0, #5BF175)"/>
<path id="Vector_24" d="M11.7875 0H9.43142V2.35608H11.7875V0Z" fill="var(--fill-0, #5BF175)"/>
<path id="Vector_25" d="M25.9342 0H23.5758V2.35608H25.9342V0Z" fill="var(--fill-0, #5BF175)"/>
<path id="Vector_26" d="M21.2197 0H14.1467V2.35608H21.2197V0Z" fill="var(--fill-0, #5BF175)"/>
</g>
</svg>
