<svg preserveAspectRatio="none" width="100%" height="100%" overflow="visible" style="display: block;" viewBox="0 0 32.0008 32.0019" fill="none" xmlns="http://www.w3.org/2000/svg">
<g id="Group">
<path id="Vector" d="M24.6159 32.0007H32.0008V24.6158H24.6159V32.0007ZM27.0783 27.0766H29.5383V29.5391H27.0783V27.0766Z" fill="var(--fill-0, #39D353)"/>
<path id="Vector_2" d="M32.0003 9.84631H29.5379V22.1537H32.0003V9.84631Z" fill="var(--fill-0, #39D353)"/>
<path id="Vector_3" d="M29.5383 7.38617H27.0783V9.84617H29.5383V7.38617Z" fill="var(--fill-0, #39D353)"/>
<path id="Vector_4" d="M27.0759 12.3082H24.6159V14.7682H27.0759V12.3082Z" fill="var(--fill-0, #39D353)"/>
<path id="Vector_5" d="M2.46256 24.6158H0.000101616V27.0758H2.46256V24.6158Z" fill="var(--fill-0, #39D353)"/>
<path id="Vector_6" d="M2.46256 19.6938H0.000101616V22.1538H2.46256V19.6938Z" fill="var(--fill-0, #39D353)"/>
<path id="Vector_7" d="M2.46256 29.5395H0.000101616V32.0019H2.46256V29.5395Z" fill="var(--fill-0, #39D353)"/>
<path id="Vector_8" d="M4.92313 27.0765H2.46313V29.5389H4.92313V27.0765Z" fill="var(--fill-0, #39D353)"/>
<path id="Vector_9" d="M2.46256 9.84631H0.000101616V17.2312H2.46256V9.84631Z" fill="var(--fill-0, #39D353)"/>
<path id="Vector_10" d="M9.84759 29.5395H7.38513V32.0019H9.84759V29.5395Z" fill="var(--fill-0, #39D353)"/>
<path id="Vector_11" d="M22.1558 29.5395H19.6933V32.0019H22.1558V29.5395Z" fill="var(--fill-0, #39D353)"/>
<path id="Vector_12" d="M12.3076 27.0765H9.84757V29.5389H12.3076V27.0765Z" fill="var(--fill-0, #39D353)"/>
<path id="Vector_13" d="M19.6933 27.0765H17.2309V29.5389H19.6933V27.0765Z" fill="var(--fill-0, #39D353)"/>
<path id="Vector_14" d="M14.7713 24.6158H12.3089V27.0758H14.7713V24.6158Z" fill="var(--fill-0, #39D353)"/>
<path id="Vector_15" d="M22.1558 24.6158H19.6933V27.0758H22.1558V24.6158Z" fill="var(--fill-0, #39D353)"/>
<path id="Vector_16" d="M27.0782 19.6938H19.6933V22.1538H27.0782V19.6938Z" fill="var(--fill-0, #39D353)"/>
<path id="Vector_17" d="M32.0003 0H29.5379V7.38492H32.0003V0Z" fill="var(--fill-0, #39D353)"/>
<path id="Vector_18" d="M7.38502 0H0.000101616V7.38492H7.38502V0ZM4.92256 4.92328H2.46256V2.46082H4.92256V4.92328Z" fill="var(--fill-0, #39D353)"/>
<g id="Group_2">
<path id="Vector_19" d="M7.38497 12.3084H12.3082V9.84595H7.38497H4.92251V19.6933V22.1533H12.3082V19.6933H7.38497V12.3084Z" fill="var(--fill-0, #39D353)"/>
<path id="Vector_20" d="M14.7711 12.309H12.3087V19.6939H14.7711V12.309Z" fill="var(--fill-0, #39D353)"/>
</g>
<path id="Vector_21" d="M24.6158 9.84631H19.6933V12.3088H24.6158V9.84631Z" fill="var(--fill-0, #39D353)"/>
<path id="Vector_22" d="M19.6933 12.3082H17.2309V19.6931H19.6933V12.3082Z" fill="var(--fill-0, #39D353)"/>
<path id="Vector_23" d="M24.6158 4.92316H9.84757V7.38562H24.6158H27.0782V4.92316H24.6158Z" fill="var(--fill-0, #39D353)"/>
<path id="Vector_24" d="M12.3076 0H9.84757V2.46H12.3076V0Z" fill="var(--fill-0, #39D353)"/>
<path id="Vector_25" d="M27.0783 0H24.6159V2.46H27.0783V0Z" fill="var(--fill-0, #39D353)"/>
<path id="Vector_26" d="M22.1556 0H14.7707V2.46H22.1556V0Z" fill="var(--fill-0, #39D353)"/>
</g>
</svg>
