<svg preserveAspectRatio="none" width="100%" height="100%" overflow="visible" style="display: block;" viewBox="0 0 16 21.001" fill="none" xmlns="http://www.w3.org/2000/svg">
<path id="Vector" d="M8 5.001C12.4183 5.001 16 8.58271 16 13.001C16 17.4193 12.4183 21.001 8 21.001C3.58172 21.001 0 17.4193 0 13.001C0 8.58271 3.58172 5.001 8 5.001ZM8 7.001C4.68629 7.001 2 9.68731 2 13.001C2 16.3147 4.68629 19.001 8 19.001C11.3137 19.001 14 16.3147 14 13.001C14 9.68731 11.3137 7.001 8 7.001ZM8 8.50101L9.3225 11.1807L12.2798 11.6104L10.1399 13.6963L10.645 16.6416L8 15.251L5.35497 16.6416L5.86012 13.6963L3.72025 11.6104L6.6775 11.1807L8 8.50101ZM14 0.000999928V3.001L12.6366 4.13856C11.5305 3.55871 10.3025 3.17985 9.0011 3.05049L9 0L14 0.000999928ZM7 0L6.9997 3.0504C5.6984 3.17964 4.47046 3.55836 3.36441 4.13804L2 3.001V0.000999928L7 0Z" fill="var(--fill-0, white)"/>
</svg>
