<svg preserveAspectRatio="none" width="100%" height="100%" overflow="visible" style="display: block;" viewBox="0 0 32.0007 32.0019" fill="none" xmlns="http://www.w3.org/2000/svg">
<g id="Group">
<path id="Vector" d="M24.6158 32.0007H32.0007V24.6158H24.6158V32.0007ZM27.0782 27.0766H29.5382V29.5391H27.0782V27.0766Z" fill="var(--fill-0, #39D353)"/>
<path id="Vector_2" d="M32.0002 9.84631H29.5378V22.1537H32.0002V9.84631Z" fill="var(--fill-0, #39D353)"/>
<path id="Vector_3" d="M29.5382 7.38617H27.0782V9.84617H29.5382V7.38617Z" fill="var(--fill-0, #39D353)"/>
<path id="Vector_4" d="M27.0758 12.3082H24.6158V14.7682H27.0758V12.3082Z" fill="var(--fill-0, #39D353)"/>
<path id="Vector_5" d="M2.46246 24.6158H0V27.0758H2.46246V24.6158Z" fill="var(--fill-0, #39D353)"/>
<path id="Vector_6" d="M2.46246 19.6938H0V22.1538H2.46246V19.6938Z" fill="var(--fill-0, #39D353)"/>
<path id="Vector_7" d="M2.46246 29.5395H0V32.0019H2.46246V29.5395Z" fill="var(--fill-0, #39D353)"/>
<path id="Vector_8" d="M4.92303 27.0765H2.46302V29.5389H4.92303V27.0765Z" fill="var(--fill-0, #39D353)"/>
<path id="Vector_9" d="M2.46246 9.84631H0V17.2312H2.46246V9.84631Z" fill="var(--fill-0, #39D353)"/>
<path id="Vector_10" d="M9.84748 29.5395H7.38502V32.0019H9.84748V29.5395Z" fill="var(--fill-0, #39D353)"/>
<path id="Vector_11" d="M22.1557 29.5395H19.6932V32.0019H22.1557V29.5395Z" fill="var(--fill-0, #39D353)"/>
<path id="Vector_12" d="M12.3075 27.0765H9.84747V29.5389H12.3075V27.0765Z" fill="var(--fill-0, #39D353)"/>
<path id="Vector_13" d="M19.6932 27.0765H17.2308V29.5389H19.6932V27.0765Z" fill="var(--fill-0, #39D353)"/>
<path id="Vector_14" d="M14.7712 24.6158H12.3088V27.0758H14.7712V24.6158Z" fill="var(--fill-0, #39D353)"/>
<path id="Vector_15" d="M22.1557 24.6158H19.6932V27.0758H22.1557V24.6158Z" fill="var(--fill-0, #39D353)"/>
<path id="Vector_16" d="M27.0781 19.6938H19.6932V22.1538H27.0781V19.6938Z" fill="var(--fill-0, #39D353)"/>
<path id="Vector_17" d="M32.0002 0H29.5378V7.38492H32.0002V0Z" fill="var(--fill-0, #39D353)"/>
<path id="Vector_18" d="M7.38492 0H0V7.38492H7.38492V0ZM4.92246 4.92328H2.46246V2.46082H4.92246V4.92328Z" fill="var(--fill-0, #39D353)"/>
<g id="Group_2">
<path id="Vector_19" d="M7.38486 12.3084H12.3081V9.84595H7.38486H4.9224V19.6933V22.1533H12.3081V19.6933H7.38486V12.3084Z" fill="var(--fill-0, #39D353)"/>
<path id="Vector_20" d="M14.771 12.309H12.3086V19.6939H14.771V12.309Z" fill="var(--fill-0, #39D353)"/>
</g>
<path id="Vector_21" d="M24.6157 9.84631H19.6932V12.3088H24.6157V9.84631Z" fill="var(--fill-0, #39D353)"/>
<path id="Vector_22" d="M19.6932 12.3082H17.2308V19.6931H19.6932V12.3082Z" fill="var(--fill-0, #39D353)"/>
<path id="Vector_23" d="M24.6157 4.92316H9.84747V7.38562H24.6157H27.0781V4.92316H24.6157Z" fill="var(--fill-0, #39D353)"/>
<path id="Vector_24" d="M12.3075 0H9.84747V2.46H12.3075V0Z" fill="var(--fill-0, #39D353)"/>
<path id="Vector_25" d="M27.0782 0H24.6158V2.46H27.0782V0Z" fill="var(--fill-0, #39D353)"/>
<path id="Vector_26" d="M22.1555 0H14.7706V2.46H22.1555V0Z" fill="var(--fill-0, #39D353)"/>
</g>
</svg>
