<svg preserveAspectRatio="none" width="100%" height="100%" overflow="visible" style="display: block;" viewBox="0 0 496 352" fill="none" xmlns="http://www.w3.org/2000/svg">
<g id="Frame 140" filter="url(#filter0_d_2_69)">
<rect x="56" y="52" width="384" height="240" rx="16" fill="url(#paint0_linear_2_69)"/>
<rect x="57" y="53" width="382" height="238" rx="15" stroke="var(--stroke-0, #5DABC5)" stroke-opacity="0.7" stroke-width="2"/>
<g id="Ellipse 2537" filter="url(#filter1_f_2_69)">
<ellipse cx="248" cy="172" rx="80" ry="20" fill="var(--fill-0, #5BA8C1)"/>
</g>
<path id="Vector 2025" d="M176.995 73L78 171.995" stroke="url(#paint1_linear_2_69)" stroke-dasharray="4 4"/>
<path id="Vector 2027" d="M215.995 162L117 260.995" stroke="url(#paint2_linear_2_69)" stroke-dasharray="4 4"/>
<path id="Vector 2032" d="M176.995 130L78 228.995" stroke="url(#paint3_linear_2_69)" stroke-dasharray="4 4"/>
<path id="Vector 2028" d="M331.995 167L233 265.995" stroke="url(#paint4_linear_2_69)" stroke-dasharray="4 4"/>
<path id="Vector 2029" d="M411.995 167L313 265.995" stroke="url(#paint5_linear_2_69)" stroke-dasharray="4 4"/>
<path id="Vector 2030" d="M367.995 84L269 182.995" stroke="url(#paint6_linear_2_69)" stroke-dasharray="4 4"/>
<path id="Vector 2031" d="M417.995 117L319 215.995" stroke="url(#paint7_linear_2_69)" stroke-dasharray="4 4"/>
<path id="Vector 2026" d="M265.995 73L167 171.995" stroke="url(#paint8_linear_2_69)" stroke-dasharray="4 4"/>
<rect id="Rectangle 42619" x="189" y="113" width="118" height="118" rx="27" fill="url(#paint9_linear_2_69)" stroke="var(--stroke-0, #62D8FF)" stroke-width="2"/>
<g id="Vector 2003">
<path d="M248.5 194.468C248.191 194.646 247.81 194.646 247.5 194.468L227.421 182.883C226.754 182.498 225.921 182.979 225.921 183.749V186.684C225.921 187.041 226.112 187.372 226.421 187.55L247.5 199.712C247.81 199.89 248.191 199.89 248.5 199.712L269.579 187.55C269.889 187.372 270.079 187.041 270.079 186.684V183.749C270.079 182.979 269.246 182.498 268.58 182.883L248.5 194.468Z" fill="white"/>
<path fill-rule="evenodd" clip-rule="evenodd" d="M209.487 167.947C208.824 167.559 208.827 166.601 209.492 166.217L247.5 144.288C247.81 144.11 248.191 144.11 248.5 144.288L287.5 166.789C287.809 166.968 288 167.298 288 167.655V178.445C288 178.998 287.552 179.445 287 179.445H285.238C284.685 179.445 284.238 178.998 284.238 178.445V171.283C284.238 170.513 283.405 170.032 282.738 170.416L248.503 190.168C248.192 190.348 247.809 190.346 247.499 190.165L209.487 167.947ZM277.39 167.944C278.057 167.559 278.057 166.596 277.39 166.212L248.5 149.544C248.191 149.365 247.81 149.365 247.5 149.544L218.61 166.212C217.943 166.596 217.943 167.559 218.61 167.944L247.5 184.612C247.81 184.79 248.191 184.79 248.5 184.612L277.39 167.944Z" fill="white"/>
</g>
<g id="Group 43044">
<foreignObject x="333" y="186" width="96" height="96"><div xmlns="http://www.w3.org/1999/xhtml" style="backdrop-filter:blur(8px);clip-path:url(#bgblur_0_2_69_clip_path);height:100%;width:100%"></div></foreignObject><g id="Ellipse 2538" data-figma-bg-blur-radius="16">
<circle cx="381" cy="234" r="32" fill="var(--fill-0, white)" fill-opacity="0.1"/>
<circle cx="381" cy="234" r="31" stroke="var(--stroke-0, white)" stroke-opacity="0.3" stroke-width="2"/>
</g>
<path id="Vector" d="M385.021 231.414L376.414 240.021L375 238.607L383.607 230H376.021V228H387.021V239H385.021V231.414Z" fill="var(--fill-0, white)"/>
</g>
<g id="Group 43045">
<foreignObject x="333" y="186" width="96" height="96"><div xmlns="http://www.w3.org/1999/xhtml" style="backdrop-filter:blur(8px);clip-path:url(#bgblur_1_2_69_clip_path);height:100%;width:100%"></div></foreignObject><g id="Ellipse 2538_2" data-figma-bg-blur-radius="16">
<circle cx="381" cy="234" r="32" fill="var(--fill-0, white)" fill-opacity="0.1"/>
<circle cx="381" cy="234" r="31" stroke="var(--stroke-0, white)" stroke-opacity="0.3" stroke-width="2"/>
</g>
<path id="Vector_2" d="M385.021 231.414L376.414 240.021L375 238.607L383.607 230H376.021V228H387.021V239H385.021V231.414Z" fill="var(--fill-0, white)"/>
</g>
</g>
<defs>
<filter id="filter0_d_2_69" x="0" y="0" width="496" height="352" filterUnits="userSpaceOnUse" color-interpolation-filters="sRGB">
<feFlood flood-opacity="0" result="BackgroundImageFix"/>
<feColorMatrix in="SourceAlpha" type="matrix" values="0 0 0 0 0 0 0 0 0 0 0 0 0 0 0 0 0 0 127 0" result="hardAlpha"/>
<feOffset dy="4"/>
<feGaussianBlur stdDeviation="28"/>
<feComposite in2="hardAlpha" operator="out"/>
<feColorMatrix type="matrix" values="0 0 0 0 0 0 0 0 0 0 0 0 0 0 0 0 0 0 0.4 0"/>
<feBlend mode="normal" in2="BackgroundImageFix" result="effect1_dropShadow_2_69"/>
<feBlend mode="normal" in="SourceGraphic" in2="effect1_dropShadow_2_69" result="shape"/>
</filter>
<filter id="filter1_f_2_69" x="68" y="52" width="360" height="240" filterUnits="userSpaceOnUse" color-interpolation-filters="sRGB">
<feFlood flood-opacity="0" result="BackgroundImageFix"/>
<feBlend mode="normal" in="SourceGraphic" in2="BackgroundImageFix" result="shape"/>
<feGaussianBlur stdDeviation="50" result="effect1_foregroundBlur_2_69"/>
</filter>
<clipPath id="bgblur_0_2_69_clip_path" transform="translate(-333 -186)"><circle cx="381" cy="234" r="32"/>
</clipPath><clipPath id="bgblur_1_2_69_clip_path" transform="translate(-333 -186)"><circle cx="381" cy="234" r="32"/>
</clipPath><linearGradient id="paint0_linear_2_69" x1="248" y1="292" x2="248" y2="52" gradientUnits="userSpaceOnUse">
<stop stop-color="#08191F"/>
<stop offset="1" stop-color="#0E3D4C"/>
</linearGradient>
<linearGradient id="paint1_linear_2_69" x1="177.349" y1="73.3536" x2="78.3536" y2="172.349" gradientUnits="userSpaceOnUse">
<stop stop-color="#61B2CD"/>
<stop offset="1" stop-color="#61B2CD" stop-opacity="0"/>
</linearGradient>
<linearGradient id="paint2_linear_2_69" x1="216.349" y1="162.354" x2="117.354" y2="261.349" gradientUnits="userSpaceOnUse">
<stop stop-color="#61B2CD"/>
<stop offset="1" stop-color="#61B2CD" stop-opacity="0"/>
</linearGradient>
<linearGradient id="paint3_linear_2_69" x1="177.349" y1="130.354" x2="78.3536" y2="229.349" gradientUnits="userSpaceOnUse">
<stop stop-color="#61B2CD"/>
<stop offset="1" stop-color="#61B2CD" stop-opacity="0"/>
</linearGradient>
<linearGradient id="paint4_linear_2_69" x1="332.348" y1="167.354" x2="233.354" y2="266.349" gradientUnits="userSpaceOnUse">
<stop stop-color="#61B2CD"/>
<stop offset="1" stop-color="#61B2CD" stop-opacity="0"/>
</linearGradient>
<linearGradient id="paint5_linear_2_69" x1="412.348" y1="167.354" x2="313.354" y2="266.349" gradientUnits="userSpaceOnUse">
<stop stop-color="#61B2CD"/>
<stop offset="1" stop-color="#61B2CD" stop-opacity="0"/>
</linearGradient>
<linearGradient id="paint6_linear_2_69" x1="368.348" y1="84.3536" x2="269.354" y2="183.349" gradientUnits="userSpaceOnUse">
<stop stop-color="#61B2CD"/>
<stop offset="1" stop-color="#61B2CD" stop-opacity="0"/>
</linearGradient>
<linearGradient id="paint7_linear_2_69" x1="418.348" y1="117.354" x2="319.354" y2="216.349" gradientUnits="userSpaceOnUse">
<stop stop-color="#61B2CD"/>
<stop offset="1" stop-color="#61B2CD" stop-opacity="0"/>
</linearGradient>
<linearGradient id="paint8_linear_2_69" x1="266.349" y1="73.3536" x2="167.354" y2="172.349" gradientUnits="userSpaceOnUse">
<stop stop-color="#61B2CD"/>
<stop offset="1" stop-color="#61B2CD" stop-opacity="0"/>
</linearGradient>
<linearGradient id="paint9_linear_2_69" x1="248" y1="112" x2="248" y2="232" gradientUnits="userSpaceOnUse">
<stop stop-color="#61B2CD"/>
<stop offset="1" stop-color="#315967"/>
</linearGradient>
</defs>
</svg>
