<svg preserveAspectRatio="none" width="100%" height="100%" overflow="visible" style="display: block;" viewBox="0 0 48 48" fill="none" xmlns="http://www.w3.org/2000/svg">
<g id="Group 43071">
<circle id="Ellipse 2541" cx="24" cy="24" r="24" fill="var(--fill-0, #721AE7)"/>
<path id="Vector" d="M21.55 23.5C20.3074 23.5 19.3 22.4926 19.3 21.25C19.3 20.0074 20.3074 19 21.55 19C22.7926 19 23.8 20.0074 23.8 21.25C23.8 22.4926 22.7926 23.5 21.55 23.5ZM22 31.748V28.4C22 27.9116 22.1442 27.4627 22.4041 27.0624C22.1087 27.0213 21.8068 27 21.5 27C19.932 27 18.4937 27.5552 17.3709 28.4797C18.4491 30.0721 20.0859 31.2553 22 31.748ZM16.4529 26.66C17.8643 25.6168 19.6101 25 21.5 25C22.5435 25 23.5431 25.188 24.4667 25.5321C25.3447 25.1888 26.3924 25 27.5 25C29.1597 25 30.6849 25.4239 31.706 26.1563C31.8976 25.4703 32 24.7471 32 24C32 19.5817 28.4183 16 24 16C19.5817 16 16 19.5817 16 24C16 24.9325 16.1596 25.8278 16.4529 26.66ZM30.8794 28.0859C30.4862 27.5526 29.1708 27 27.5 27C25.4939 27 24 27.7967 24 28.4V32C26.9255 32 29.4843 30.4296 30.8794 28.0859ZM24 34C18.4771 34 14 29.5228 14 24C14 18.4771 18.4771 14 24 14C29.5228 14 34 18.4771 34 24C34 29.5228 29.5228 34 24 34ZM27.5 24.5C26.3954 24.5 25.5 23.6046 25.5 22.5C25.5 21.3954 26.3954 20.5 27.5 20.5C28.6046 20.5 29.5 21.3954 29.5 22.5C29.5 23.6046 28.6046 24.5 27.5 24.5Z" fill="var(--fill-0, white)"/>
</g>
</svg>
