<svg preserveAspectRatio="none" width="100%" height="100%" overflow="visible" style="display: block;" viewBox="0 0 71 22" fill="none" xmlns="http://www.w3.org/2000/svg">
<path id="CVCC.0011.LOGOTIPO.RGB_.PRINCIPAL.FUNDO-AZULCor@4x-1 1 (Traced)" fill-rule="evenodd" clip-rule="evenodd" d="M9.88391 0.0864013C8.15869 0.316608 6.31817 0.993151 4.92332 1.90977C4.45181 2.21955 3.76569 2.74991 3.39854 3.08836C2.22927 4.16618 1.19826 5.69496 0.624319 7.20186C0.50753 7.50872 0.318999 8.12673 0.205428 8.57521C0.0231581 9.29519 -0.000930031 9.58659 2.65387e-05 11.0644C0.00107007 12.5891 0.0216797 12.8188 0.232125 13.6446C0.501356 14.7013 0.882766 15.686 1.32531 16.467C1.79577 17.2975 2.57372 18.2756 3.28002 18.9247C4.02875 19.6129 5.33916 20.4821 6.23555 20.8854C7.13464 21.2897 8.36114 21.6629 9.38788 21.8445C10.5644 22.0524 12.7991 22.0517 13.9968 21.843C16.2525 21.4499 18.3943 20.4575 19.9319 19.0929C20.2669 18.7956 20.3881 18.627 20.3871 18.4596C20.3863 18.3342 20.357 18.1902 20.3219 18.1396C20.2868 18.089 19.4234 17.3455 18.4035 16.4873C16.9366 15.2532 16.4968 14.9269 16.2998 14.9269C16.1627 14.9269 16.026 14.9664 15.9957 15.0146C15.8922 15.18 15.0311 15.7658 14.5094 16.0257C13.6166 16.4705 13.0597 16.5944 11.9532 16.5944C10.8102 16.5944 10.2584 16.4651 9.31014 15.975C8.58341 15.5994 7.77215 14.8192 7.3203 14.0614C6.63992 12.9201 6.2953 11.2418 6.47513 9.94538C6.5847 9.15579 6.84828 8.36775 7.20238 7.77129C7.71215 6.91278 8.79525 6.05847 9.80364 5.71943C10.0323 5.64252 10.5283 5.53506 10.9058 5.48055C11.4249 5.40562 11.7764 5.40571 12.3482 5.48081C12.764 5.5354 13.3626 5.67608 13.6784 5.79342C13.9943 5.91075 14.5187 6.19838 14.844 6.43262C15.1692 6.66686 15.5238 6.85853 15.6318 6.85853C15.7639 6.85853 16.4243 6.33151 17.6518 5.24657C19.2259 3.85503 19.4791 3.59701 19.5025 3.35942C19.5259 3.12304 19.4666 3.02673 19.0813 2.67533C17.7112 1.42567 15.8528 0.546988 13.8664 0.209489C12.8527 0.0373062 10.7407 -0.0279296 9.88391 0.0864013ZM60.5209 0.0904353C58.4501 0.352057 56.5235 1.12619 54.8488 2.36976C54.0522 2.96132 52.9331 4.13819 52.376 4.97018C51.5135 6.25846 50.9298 7.74185 50.685 9.26737C50.5766 9.94289 50.5537 10.4809 50.5903 11.4912C50.6556 13.2964 50.8942 14.3178 51.6053 15.8353C52.2863 17.2888 53.4345 18.6688 54.8225 19.702C55.6993 20.3546 57.1517 21.0775 58.3034 21.4346C59.6552 21.8536 60.6877 21.9985 62.3036 21.9958C63.9095 21.993 64.8733 21.8579 66.2409 21.4438C66.7085 21.3022 67.3847 21.0543 67.7437 20.8928C68.5698 20.5212 69.7539 19.7639 70.4561 19.158C70.888 18.7854 70.9996 18.6381 70.9996 18.441C70.9996 18.1545 71.0809 18.2329 68.7872 16.3088C67.719 15.4127 67.071 14.9269 66.9439 14.9269C66.8361 14.9269 66.4816 15.1262 66.1562 15.3698C65.8308 15.6134 65.2895 15.9419 64.9534 16.0999C64.2774 16.4175 63.2474 16.6444 62.4916 16.6421C61.3293 16.6386 59.992 16.1568 59.0643 15.4073C58.2334 14.7359 57.4971 13.5004 57.2042 12.2858C57.0091 11.4769 57.0115 9.89645 57.2088 9.17605C57.5905 7.78236 58.5742 6.56275 59.7817 5.98611C60.1404 5.81479 60.6491 5.6239 60.9122 5.56192C61.572 5.40648 63.0063 5.42519 63.6719 5.5978C64.3446 5.7723 64.9953 6.08963 65.5726 6.52481C65.8162 6.70832 66.1097 6.85784 66.2248 6.85698C66.3726 6.85595 66.9714 6.38129 68.2604 5.24348C70.387 3.36629 70.3974 3.34886 69.7545 2.74399C69.0665 2.0968 68.3656 1.62334 67.3881 1.14525C65.4858 0.215064 62.8001 -0.197538 60.5209 0.0904353ZM22.9973 0.506817C22.9016 0.601234 22.8233 0.753762 22.8233 0.845862C22.8233 0.937876 23.3566 2.14496 24.0084 3.52817C24.6602 4.91139 26.0644 7.89712 27.1288 10.1631C30.9917 18.3871 31.4093 19.2665 31.5919 19.562C31.694 19.7272 32.0031 20.0871 32.2789 20.3618C32.6177 20.6993 33.006 20.9708 33.476 21.1992C34.2166 21.5591 34.8322 21.7091 35.5532 21.7058C36.224 21.7026 36.6989 21.5699 37.5884 21.1371C38.1811 20.8487 38.5545 20.5922 38.99 20.1745C39.5985 19.5906 39.655 19.495 40.6825 17.308C40.8431 16.9663 42.4917 13.4806 44.3461 9.5623C46.2003 5.64398 47.8688 2.11715 48.0536 1.72489C48.2386 1.33262 48.3898 0.936674 48.3898 0.845089C48.3898 0.753419 48.3116 0.601234 48.2159 0.506817C48.0487 0.341758 47.9261 0.335149 45.0452 0.335149C41.5716 0.335149 41.8963 0.243736 41.4518 1.34679C41.305 1.71098 40.7082 3.12904 40.1256 4.4981C37.9325 9.65114 36.7923 12.3383 36.4104 13.2532C36.1937 13.7725 35.9765 14.2475 35.9276 14.309C35.8788 14.3705 35.7197 14.4091 35.5742 14.3948C35.3302 14.371 35.2813 14.3057 34.9447 13.5536C34.7441 13.1051 33.6516 10.5558 32.517 7.88854C31.3825 5.22124 30.223 2.49816 29.9405 1.83724C29.6579 1.17632 29.3454 0.567931 29.246 0.485359C29.0816 0.348797 28.7981 0.335149 26.1182 0.335149C23.2871 0.335149 23.1643 0.341929 22.9973 0.506817Z" fill="var(--fill-0, #FBF5FF)" fill-opacity="0.2"/>
</svg>
