<svg preserveAspectRatio="none" width="100%" height="100%" overflow="visible" style="display: block;" viewBox="0 0 29.087 21.637" fill="none" xmlns="http://www.w3.org/2000/svg">
<g id="Group 1110">
<path id="Vector" d="M29.0563 5.97353C28.7195 2.73075 25.9945 0.160903 22.7184 0.00793922C18.8606 -0.175585 15.6763 2.88371 15.6763 6.70775C15.6763 9.52229 17.4216 11.9085 19.8709 12.9181L16.105 20.6275C15.8905 21.0863 16.2273 21.637 16.7173 21.637H19.2891C19.5035 21.637 19.7178 21.5453 19.8401 21.3617L27.9232 10.4707C28.7808 9.18565 29.2094 7.62547 29.0565 5.97336L29.0563 5.97353Z" fill="var(--fill-0, white)"/>
<path id="Vector_2" d="M7.04211 0.00784681C3.18431 -0.175677 0 2.88362 0 6.70766C0 9.52219 1.74533 11.9084 4.19459 12.918L0.42865 20.6274C0.214221 21.0862 0.551028 21.6369 1.04095 21.6369H3.6128C3.82723 21.6369 4.04144 21.5452 4.16381 21.3616L12.2469 10.4706C13.1042 9.21626 13.5329 7.65608 13.3492 6.00397C13.0126 2.73043 10.2876 0.160751 7.04189 0.0077868L7.04211 0.00784681Z" fill="var(--fill-0, white)"/>
</g>
</svg>
