<svg preserveAspectRatio="none" width="100%" height="100%" overflow="visible" style="display: block;" viewBox="0 0 92 16" fill="none" xmlns="http://www.w3.org/2000/svg">
<g id="Group 27700">
<path id="Star 1" d="M8 0L9.79611 5.52786H15.6085L10.9062 8.94427L12.7023 14.4721L8 11.0557L3.29772 14.4721L5.09383 8.94427L0.391548 5.52786H6.20389L8 0Z" fill="var(--fill-0, #39D353)"/>
<path id="Star 2" d="M27 0L28.7961 5.52786H34.6085L29.9062 8.94427L31.7023 14.4721L27 11.0557L22.2977 14.4721L24.0938 8.94427L19.3915 5.52786H25.2039L27 0Z" fill="var(--fill-0, #39D353)"/>
<path id="Star 3" d="M46 0L47.7961 5.52786H53.6085L48.9062 8.94427L50.7023 14.4721L46 11.0557L41.2977 14.4721L43.0938 8.94427L38.3915 5.52786H44.2039L46 0Z" fill="var(--fill-0, #39D353)"/>
<path id="Star 4" d="M65 0L66.7961 5.52786H72.6085L67.9062 8.94427L69.7023 14.4721L65 11.0557L60.2977 14.4721L62.0938 8.94427L57.3915 5.52786H63.2039L65 0Z" fill="var(--fill-0, #39D353)"/>
<path id="Star 5" d="M84 0L85.7961 5.52786H91.6085L86.9062 8.94427L88.7023 14.4721L84 11.0557L79.2977 14.4721L81.0938 8.94427L76.3915 5.52786H82.2039L84 0Z" fill="var(--fill-0, #39D353)"/>
</g>
</svg>
