<svg preserveAspectRatio="none" width="100%" height="100%" overflow="visible" style="display: block;" viewBox="0 0 64 64" fill="none" xmlns="http://www.w3.org/2000/svg">
<g id="Group 43063">
<foreignObject x="-24" y="-24" width="112" height="112"><div xmlns="http://www.w3.org/1999/xhtml" style="backdrop-filter:blur(12px);clip-path:url(#bgblur_0_38_280_clip_path);height:100%;width:100%"></div></foreignObject><rect id="Rectangle 42494" data-figma-bg-blur-radius="24" x="0.5" y="0.5" width="63" height="63" rx="31.5" fill="url(#paint0_linear_38_280)" fill-opacity="0.2" stroke="url(#paint1_linear_38_280)"/>
<path id="Vector" d="M27 26V23C27 22.4477 27.4477 22 28 22H36C36.5523 22 37 22.4477 37 23V26H41C41.5523 26 42 26.4477 42 27V41C42 41.5523 41.5523 42 41 42H23C22.4477 42 22 41.5523 22 41V27C22 26.4477 22.4477 26 23 26H27ZM35 28H29V40H35V28ZM27 28H24V40H27V28ZM37 28V40H40V28H37ZM29 24V26H35V24H29Z" fill="var(--fill-0, #39D353)"/>
</g>
<defs>
<clipPath id="bgblur_0_38_280_clip_path" transform="translate(24 24)"><rect x="0.5" y="0.5" width="63" height="63" rx="31.5"/>
</clipPath><linearGradient id="paint0_linear_38_280" x1="64" y1="32" x2="0" y2="32" gradientUnits="userSpaceOnUse">
<stop stop-color="#984BFF"/>
<stop offset="1" stop-color="#5217A0"/>
</linearGradient>
<linearGradient id="paint1_linear_38_280" x1="45.8915" y1="-25.7778" x2="-6.26653" y2="-8.34123" gradientUnits="userSpaceOnUse">
<stop stop-color="#8532F2"/>
<stop offset="1" stop-color="#8532F2" stop-opacity="0"/>
</linearGradient>
</defs>
</svg>
