<svg preserveAspectRatio="none" width="100%" height="100%" overflow="visible" style="display: block;" viewBox="0 0 43 43.0012" fill="none" xmlns="http://www.w3.org/2000/svg">
<g id="Group">
<path id="Vector" d="M33.0767 43.0002H43V33.0768H33.0767V43.0002ZM36.3855 36.3835H39.6911V39.6924H36.3855V36.3835Z" fill="var(--fill-0, #5BF175)"/>
<path id="Vector_2" d="M43 13.2302H39.6911V29.7679H43V13.2302Z" fill="var(--fill-0, #5BF175)"/>
<path id="Vector_3" d="M39.6912 9.92452H36.3856V13.2301H39.6912V9.92452Z" fill="var(--fill-0, #5BF175)"/>
<path id="Vector_4" d="M36.3833 16.5391H33.0778V19.8447H36.3833V16.5391Z" fill="var(--fill-0, #5BF175)"/>
<path id="Vector_5" d="M3.30888 33.0768H1.74349e-06V36.3824H3.30888V33.0768Z" fill="var(--fill-0, #5BF175)"/>
<path id="Vector_6" d="M3.30888 26.4622H1.74349e-06V29.7678H3.30888V26.4622Z" fill="var(--fill-0, #5BF175)"/>
<path id="Vector_7" d="M3.30888 39.6923H1.74349e-06V43.0012H3.30888V39.6923Z" fill="var(--fill-0, #5BF175)"/>
<path id="Vector_8" d="M6.61449 36.3836H3.30892V39.6925H6.61449V36.3836Z" fill="var(--fill-0, #5BF175)"/>
<path id="Vector_9" d="M3.30888 13.2302H1.74349e-06V23.1535H3.30888V13.2302Z" fill="var(--fill-0, #5BF175)"/>
<path id="Vector_10" d="M13.2322 39.6923H9.92331V43.0012H13.2322V39.6923Z" fill="var(--fill-0, #5BF175)"/>
<path id="Vector_11" d="M29.7711 39.6923H26.4622V43.0012H29.7711V39.6923Z" fill="var(--fill-0, #5BF175)"/>
<path id="Vector_12" d="M16.5378 36.3836H13.2322V39.6925H16.5378V36.3836Z" fill="var(--fill-0, #5BF175)"/>
<path id="Vector_13" d="M26.4622 36.3836H23.1534V39.6925H26.4622V36.3836Z" fill="var(--fill-0, #5BF175)"/>
<path id="Vector_14" d="M19.8478 33.0768H16.5389V36.3824H19.8478V33.0768Z" fill="var(--fill-0, #5BF175)"/>
<path id="Vector_15" d="M29.7711 33.0768H26.4622V36.3824H29.7711V33.0768Z" fill="var(--fill-0, #5BF175)"/>
<path id="Vector_16" d="M36.3855 26.4622H26.4622V29.7678H36.3855V26.4622Z" fill="var(--fill-0, #5BF175)"/>
<path id="Vector_17" d="M43 7.62939e-05H39.6911V9.92341H43V7.62939e-05Z" fill="var(--fill-0, #5BF175)"/>
<path id="Vector_18" d="M9.92333 7.62939e-05H0V9.92341H9.92333V7.62939e-05ZM6.61445 6.61563H3.30888V3.30675H6.61445V6.61563Z" fill="var(--fill-0, #5BF175)"/>
<g id="Group_2">
<path id="Vector_19" d="M9.92333 16.539H16.5389V13.2302H9.92333H6.61445V26.4624V29.7679H16.5389V26.4624H9.92333V16.539Z" fill="var(--fill-0, #5BF175)"/>
<path id="Vector_20" d="M19.8478 16.5393H16.5389V26.4626H19.8478V16.5393Z" fill="var(--fill-0, #5BF175)"/>
</g>
<path id="Vector_21" d="M33.0767 13.2302H26.4622V16.539H33.0767V13.2302Z" fill="var(--fill-0, #5BF175)"/>
<path id="Vector_22" d="M26.4622 16.5391H23.1534V26.4625H26.4622V16.5391Z" fill="var(--fill-0, #5BF175)"/>
<path id="Vector_23" d="M33.0767 6.61554H13.2322V9.92441H33.0767H36.3856V6.61554H33.0767Z" fill="var(--fill-0, #5BF175)"/>
<path id="Vector_24" d="M16.5378 7.62939e-05H13.2322V3.30565H16.5378V7.62939e-05Z" fill="var(--fill-0, #5BF175)"/>
<path id="Vector_25" d="M36.3855 7.62939e-05H33.0767V3.30565H36.3855V7.62939e-05Z" fill="var(--fill-0, #5BF175)"/>
<path id="Vector_26" d="M29.7711 7.62939e-05H19.8478V3.30565H29.7711V7.62939e-05Z" fill="var(--fill-0, #5BF175)"/>
</g>
</svg>
