<svg preserveAspectRatio="none" width="100%" height="100%" overflow="visible" style="display: block;" viewBox="0 0 50 50" fill="none" xmlns="http://www.w3.org/2000/svg">
<g id="YouTube">
<circle id="Ellipse 41" cx="25" cy="25" r="24.5" stroke="var(--stroke-0, #8532F2)"/>
<g id="Frame 92">
<path id="Vector" d="M33.6195 20.9669C33.5171 20.5864 33.3165 20.2395 33.0379 19.9608C32.7592 19.6822 32.4123 19.4816 32.0318 19.3792C30.6305 19 24.9996 19 24.9996 19C24.9996 19 19.3687 19 17.9674 19.3792C17.5869 19.4816 17.24 19.6822 16.9613 19.9608C16.6827 20.2395 16.4821 20.5864 16.3797 20.9669C16.1181 22.396 15.9911 23.8465 16.0005 25.2994C15.9911 26.7522 16.1181 28.2027 16.3797 29.6318C16.4821 30.0123 16.6827 30.3592 16.9613 30.6379C17.24 30.9165 17.5869 31.1171 17.9674 31.2195C19.3687 31.5987 24.9996 31.5987 24.9996 31.5987C24.9996 31.5987 30.6305 31.5987 32.0318 31.2195C32.4123 31.1171 32.7592 30.9165 33.0379 30.6379C33.3165 30.3592 33.5171 30.0123 33.6195 29.6318C33.8811 28.2027 34.0081 26.7522 33.9987 25.2994C34.0081 23.8465 33.8811 22.396 33.6195 20.9669V20.9669ZM23.1998 27.9991V22.5996L27.8729 25.2994L23.1998 27.9991Z" fill="var(--fill-0, #39D353)"/>
</g>
</g>
</svg>
