<svg preserveAspectRatio="none" width="100%" height="100%" overflow="visible" style="display: block;" viewBox="0 0 61.6484 61.6501" fill="none" xmlns="http://www.w3.org/2000/svg">
<g id="Group">
<path id="Vector" d="M47.4215 61.6485H61.6484V47.4216H47.4215V61.6485ZM52.1654 52.1623H56.9046V56.9062H52.1654V52.1623Z" fill="var(--fill-0, #39D353)"/>
<path id="Vector_2" d="M61.6484 18.9677H56.9046V42.6776H61.6484V18.9677Z" fill="var(--fill-0, #39D353)"/>
<path id="Vector_3" d="M56.9046 14.2285H52.1655V18.9677H56.9046V14.2285Z" fill="var(--fill-0, #39D353)"/>
<path id="Vector_4" d="M52.1622 23.7115H47.4231V28.4507H52.1622V23.7115Z" fill="var(--fill-0, #39D353)"/>
<path id="Vector_5" d="M4.74389 47.4216H1.26543e-06V52.1607H4.74389V47.4216Z" fill="var(--fill-0, #39D353)"/>
<path id="Vector_6" d="M4.74389 37.9385H1.26543e-06V42.6776H4.74389V37.9385Z" fill="var(--fill-0, #39D353)"/>
<path id="Vector_7" d="M4.74389 56.9061H1.26543e-06V61.65H4.74389V56.9061Z" fill="var(--fill-0, #39D353)"/>
<path id="Vector_8" d="M9.4831 52.1623H4.74395V56.9062H9.4831V52.1623Z" fill="var(--fill-0, #39D353)"/>
<path id="Vector_9" d="M4.74389 18.9677H1.26543e-06V33.1946H4.74389V18.9677Z" fill="var(--fill-0, #39D353)"/>
<path id="Vector_10" d="M18.9708 56.9061H14.2269V61.65H18.9708V56.9061Z" fill="var(--fill-0, #39D353)"/>
<path id="Vector_11" d="M42.6824 56.9061H37.9385V61.65H42.6824V56.9061Z" fill="var(--fill-0, #39D353)"/>
<path id="Vector_12" d="M23.71 52.1623H18.9708V56.9062H23.71V52.1623Z" fill="var(--fill-0, #39D353)"/>
<path id="Vector_13" d="M37.9385 52.1623H33.1946V56.9062H37.9385V52.1623Z" fill="var(--fill-0, #39D353)"/>
<path id="Vector_14" d="M28.4555 47.4216H23.7116V52.1607H28.4555V47.4216Z" fill="var(--fill-0, #39D353)"/>
<path id="Vector_15" d="M42.6824 47.4216H37.9385V52.1607H42.6824V47.4216Z" fill="var(--fill-0, #39D353)"/>
<path id="Vector_16" d="M52.1654 37.9385H37.9385V42.6776H52.1654V37.9385Z" fill="var(--fill-0, #39D353)"/>
<path id="Vector_17" d="M61.6484 0H56.9046V14.2269H61.6484V0Z" fill="var(--fill-0, #39D353)"/>
<path id="Vector_18" d="M14.2269 0H1.26543e-06V14.2269H14.2269V0ZM9.48304 9.48462H4.74389V4.74073H9.48304V9.48462Z" fill="var(--fill-0, #39D353)"/>
<g id="Group_2">
<path id="Vector_19" d="M14.2269 23.7116H23.7115V18.9677H14.2269H9.48304V37.9385V42.6777H23.7115V37.9385H14.2269V23.7116Z" fill="var(--fill-0, #39D353)"/>
<path id="Vector_20" d="M28.4555 23.7115H23.7116V37.9385H28.4555V23.7115Z" fill="var(--fill-0, #39D353)"/>
</g>
<path id="Vector_21" d="M47.4215 18.9677H37.9385V23.7116H47.4215V18.9677Z" fill="var(--fill-0, #39D353)"/>
<path id="Vector_22" d="M37.9385 23.7115H33.1946V37.9384H37.9385V23.7115Z" fill="var(--fill-0, #39D353)"/>
<path id="Vector_23" d="M47.4215 9.48459H18.9708V14.2285H47.4215H52.1654V9.48459H47.4215Z" fill="var(--fill-0, #39D353)"/>
<path id="Vector_24" d="M23.71 0H18.9708V4.73915H23.71V0Z" fill="var(--fill-0, #39D353)"/>
<path id="Vector_25" d="M52.1654 0H47.4215V4.73915H52.1654V0Z" fill="var(--fill-0, #39D353)"/>
<path id="Vector_26" d="M42.6824 0H28.4554V4.73915H42.6824V0Z" fill="var(--fill-0, #39D353)"/>
</g>
</svg>
