<svg preserveAspectRatio="none" width="100%" height="100%" overflow="visible" style="display: block;" viewBox="0 0 20 20" fill="none" xmlns="http://www.w3.org/2000/svg">
<path id="Vector" d="M7.55 9.5C6.30736 9.5 5.3 8.4926 5.3 7.25C5.3 6.00736 6.30736 5 7.55 5C8.7926 5 9.8 6.00736 9.8 7.25C9.8 8.4926 8.7926 9.5 7.55 9.5ZM8 17.748V14.4C8 13.9116 8.1442 13.4627 8.4041 13.0624C8.1087 13.0213 7.80681 13 7.5 13C5.93201 13 4.49369 13.5552 3.37091 14.4797C4.44909 16.0721 6.08593 17.2553 8 17.748ZM2.45286 12.66C3.86432 11.6168 5.61013 11 7.5 11C8.5435 11 9.5431 11.188 10.4667 11.5321C11.3447 11.1888 12.3924 11 13.5 11C15.1597 11 16.6849 11.4239 17.706 12.1563C17.8976 11.4703 18 10.7471 18 10C18 5.58172 14.4183 2 10 2C5.58172 2 2 5.58172 2 10C2 10.9325 2.15956 11.8278 2.45286 12.66ZM16.8794 14.0859C16.4862 13.5526 15.1708 13 13.5 13C11.4939 13 10 13.7967 10 14.4V18C12.9255 18 15.4843 16.4296 16.8794 14.0859ZM10 20C4.47715 20 0 15.5228 0 10C0 4.47715 4.47715 0 10 0C15.5228 0 20 4.47715 20 10C20 15.5228 15.5228 20 10 20ZM13.5 10.5C12.3954 10.5 11.5 9.6046 11.5 8.5C11.5 7.39543 12.3954 6.5 13.5 6.5C14.6046 6.5 15.5 7.39543 15.5 8.5C15.5 9.6046 14.6046 10.5 13.5 10.5Z" fill="var(--fill-0, white)"/>
</svg>
