<svg preserveAspectRatio="none" width="100%" height="100%" overflow="visible" style="display: block;" viewBox="0 0 32.0008 32.0021" fill="none" xmlns="http://www.w3.org/2000/svg">
<g id="Group">
<path id="Vector" d="M24.6159 32.0008H32.0008V24.6159H24.6159V32.0008ZM27.0783 27.0767H29.5383V29.5392H27.0783V27.0767Z" fill="var(--fill-0, #39D353)"/>
<path id="Vector_2" d="M32.0003 9.84644H29.5379V22.1538H32.0003V9.84644Z" fill="var(--fill-0, #39D353)"/>
<path id="Vector_3" d="M29.5383 7.38623H27.0783V9.84623H29.5383V7.38623Z" fill="var(--fill-0, #39D353)"/>
<path id="Vector_4" d="M27.0759 12.3083H24.6159V14.7684H27.0759V12.3083Z" fill="var(--fill-0, #39D353)"/>
<path id="Vector_5" d="M2.46256 24.6159H0.000101616V27.0759H2.46256V24.6159Z" fill="var(--fill-0, #39D353)"/>
<path id="Vector_6" d="M2.46256 19.6938H0.000101616V22.1538H2.46256V19.6938Z" fill="var(--fill-0, #39D353)"/>
<path id="Vector_7" d="M2.46256 29.5396H0.000101616V32.0021H2.46256V29.5396Z" fill="var(--fill-0, #39D353)"/>
<path id="Vector_8" d="M4.92313 27.0766H2.46313V29.5391H4.92313V27.0766Z" fill="var(--fill-0, #39D353)"/>
<path id="Vector_9" d="M2.46256 9.84644H0.000101616V17.2314H2.46256V9.84644Z" fill="var(--fill-0, #39D353)"/>
<path id="Vector_10" d="M9.84759 29.5396H7.38513V32.0021H9.84759V29.5396Z" fill="var(--fill-0, #39D353)"/>
<path id="Vector_11" d="M22.1558 29.5396H19.6933V32.0021H22.1558V29.5396Z" fill="var(--fill-0, #39D353)"/>
<path id="Vector_12" d="M12.3076 27.0766H9.84757V29.5391H12.3076V27.0766Z" fill="var(--fill-0, #39D353)"/>
<path id="Vector_13" d="M19.6933 27.0766H17.2309V29.5391H19.6933V27.0766Z" fill="var(--fill-0, #39D353)"/>
<path id="Vector_14" d="M14.7713 24.6159H12.3089V27.0759H14.7713V24.6159Z" fill="var(--fill-0, #39D353)"/>
<path id="Vector_15" d="M22.1558 24.6159H19.6933V27.0759H22.1558V24.6159Z" fill="var(--fill-0, #39D353)"/>
<path id="Vector_16" d="M27.0782 19.6938H19.6933V22.1538H27.0782V19.6938Z" fill="var(--fill-0, #39D353)"/>
<path id="Vector_17" d="M32.0003 0.00012207H29.5379V7.38504H32.0003V0.00012207Z" fill="var(--fill-0, #39D353)"/>
<path id="Vector_18" d="M7.38502 0.00012207H0.000101616V7.38504H7.38502V0.00012207ZM4.92256 4.9234H2.46256V2.46094H4.92256V4.9234Z" fill="var(--fill-0, #39D353)"/>
<g id="Group_2">
<path id="Vector_19" d="M7.38497 12.3085H12.3082V9.84607H7.38497H4.92251V19.6934V22.1535H12.3082V19.6934H7.38497V12.3085Z" fill="var(--fill-0, #39D353)"/>
<path id="Vector_20" d="M14.7711 12.3091H12.3087V19.694H14.7711V12.3091Z" fill="var(--fill-0, #39D353)"/>
</g>
<path id="Vector_21" d="M24.6158 9.84644H19.6933V12.3089H24.6158V9.84644Z" fill="var(--fill-0, #39D353)"/>
<path id="Vector_22" d="M19.6933 12.3083H17.2309V19.6933H19.6933V12.3083Z" fill="var(--fill-0, #39D353)"/>
<path id="Vector_23" d="M24.6158 4.92334H9.84757V7.3858H24.6158H27.0782V4.92334H24.6158Z" fill="var(--fill-0, #39D353)"/>
<path id="Vector_24" d="M12.3076 0.00012207H9.84757V2.46012H12.3076V0.00012207Z" fill="var(--fill-0, #39D353)"/>
<path id="Vector_25" d="M27.0783 0.00012207H24.6159V2.46012H27.0783V0.00012207Z" fill="var(--fill-0, #39D353)"/>
<path id="Vector_26" d="M22.1556 0.00012207H14.7707V2.46012H22.1556V0.00012207Z" fill="var(--fill-0, #39D353)"/>
</g>
</svg>
