<svg preserveAspectRatio="none" width="100%" height="100%" overflow="visible" style="display: block;" viewBox="0 0 110 32" fill="none" xmlns="http://www.w3.org/2000/svg">
<path id="image-share 1 (Traced)" fill-rule="evenodd" clip-rule="evenodd" d="M11.1666 0.348332C9.18874 0.946715 7.97548 1.43185 6.10134 2.37356C3.87109 3.49425 1.59722 5.05056 1.07143 5.81644C0.837862 6.15647 0.564479 6.89164 0.381427 7.67144C0.100588 8.86835 0.0741371 9.42683 0.0203893 15.2786C-0.0270269 20.437 0.00167506 21.8569 0.176707 23.0293C0.466692 24.972 0.754846 25.8803 1.2722 26.4812C1.92069 27.2346 4.17036 28.7024 6.28538 29.7519C7.31531 30.2628 9.03214 30.9778 10.1008 31.3405C11.7292 31.8932 12.2173 32 13.1168 32C14.0107 32 14.5136 31.8915 16.1254 31.3507C18.3779 30.595 21.0038 29.3385 22.7444 28.1836C24.4922 27.0241 24.9997 26.5861 25.306 25.9737C25.4543 25.677 25.7188 24.764 25.8939 23.9447C26.1968 22.5264 26.2123 22.1535 26.2168 16.1398C26.2209 10.7265 26.1867 9.63983 25.9776 8.53263C25.6071 6.57056 25.4725 6.19307 24.9195 5.56885C24.2706 4.83613 22.294 3.50631 20.3888 2.52054C17.732 1.14594 14.3388 -0.0137985 13.0151 0.000124068C12.6175 0.00428648 11.7857 0.161024 11.1666 0.348332ZM53.4472 7.68063C52.3641 7.96827 50.0096 9.18685 49.0751 9.9434C48.1878 10.6618 47.5447 11.5738 47.0947 12.7517C46.8465 13.4016 46.7759 13.9422 46.7275 15.5657C46.6595 17.8418 46.8607 19.0678 47.4981 20.2624C48.1048 21.3996 49.413 22.5314 51.0769 23.3587C51.8775 23.7567 52.8765 24.1844 53.2969 24.3093C54.4535 24.6529 55.808 24.6021 57.0807 24.1674C59.5993 23.307 61.731 21.7418 62.5026 20.1861C62.7161 19.7556 62.9812 19.0565 63.0918 18.6328C63.3357 17.6985 63.3632 14.6819 63.1381 13.5991C62.9528 12.7087 62.4452 11.6242 61.8566 10.8619C61.2886 10.1263 59.9085 9.14565 58.4792 8.46244C56.3961 7.46662 55.0437 7.25649 53.4472 7.68063ZM100.475 7.75182C98.6344 8.12184 97.0549 9.4264 96.5793 10.9691C96.2394 12.0714 96.3231 14.0239 96.7455 14.848C97.2602 15.8522 98.234 16.6034 99.6081 17.0562C99.885 17.1475 101.275 17.4443 102.697 17.7156C104.406 18.0417 105.405 18.3012 105.641 18.4806C105.918 18.6911 106.009 18.9013 106.042 19.4147C106.065 19.779 106.016 20.2079 105.932 20.3676C105.848 20.5274 105.576 20.7711 105.326 20.9092C104.967 21.1086 104.525 21.1607 103.185 21.1619C101.018 21.1638 100.588 20.9791 100.043 19.8139L99.6674 19.0104L97.8568 18.9701L96.0461 18.9298L96.1447 19.7595C96.1989 20.2159 96.4061 20.9633 96.6054 21.4204C97.0649 22.4755 98.1455 23.5081 99.2355 23.9335C99.6746 24.1051 100.616 24.3183 101.328 24.4078C102.793 24.5916 105.06 24.4887 106.174 24.1879C107.997 23.6957 109.197 22.7164 109.722 21.2936C109.989 20.57 110.028 20.2248 109.986 18.9387C109.942 17.5955 109.893 17.3568 109.541 16.7438C109.07 15.9235 108.343 15.3552 107.235 14.9419C106.787 14.7747 105.221 14.4133 103.754 14.1387C101.968 13.8045 100.968 13.5499 100.729 13.3683C100.476 13.1766 100.358 12.9359 100.326 12.5469C100.301 12.2443 100.358 11.8485 100.453 11.6674C100.548 11.4862 100.894 11.2337 101.221 11.1063C101.675 10.9295 102.189 10.8863 103.392 10.9236L104.967 10.9727L105.378 11.4414C105.603 11.6992 105.788 12.0253 105.788 12.1663C105.788 12.6853 106.071 12.7668 107.876 12.7668H109.626L109.552 11.9325C109.462 10.9223 108.963 9.87321 108.227 9.1501C107.591 8.52445 106.417 7.94659 105.371 7.74436C104.491 7.57398 101.335 7.57872 100.475 7.75182ZM32.7642 9.36181C32.7642 10.3348 32.8231 10.7795 32.9832 11.0124C33.1934 11.3187 33.2893 11.3315 35.3752 11.3315H37.548V17.7186V24.1058H39.446H41.344L41.3807 17.7545L41.4173 11.4033L43.6268 11.3315C45.1696 11.2814 45.8913 11.2035 46.0187 11.0734C46.1361 10.9536 46.2184 10.3777 46.2495 9.45869L46.2978 8.03027H39.531H32.7642V9.36181ZM63.7403 9.45869C63.7714 10.3777 63.8537 10.9536 63.9711 11.0734C64.0985 11.2035 64.8202 11.2814 66.363 11.3315L68.5725 11.4033L68.6091 17.7545L68.6458 24.1058H70.5438H72.4418V17.7186V11.3315H74.6147C76.7006 11.3315 76.7964 11.3187 77.0066 11.0124C77.1667 10.7795 77.2256 10.3348 77.2256 9.36181V8.03027H70.4588H63.692L63.7403 9.45869ZM79.9052 12.4439C79.9097 15.6264 79.9609 16.9975 80.0892 17.3598C80.2893 17.9252 84.364 23.3679 84.9225 23.8161C85.2336 24.0657 85.4903 24.1055 86.7771 24.1036C87.6792 24.1023 88.4066 24.0313 88.6141 23.9242C89.002 23.724 93.179 18.2553 93.4874 17.5438C93.6469 17.1762 93.6877 16.1583 93.6877 12.5561V8.03027H92.0073C90.4301 8.03027 90.3134 8.04993 90.1078 8.34934C89.9225 8.61904 89.8887 9.27311 89.8887 12.5928C89.8887 15.2899 89.8378 16.6156 89.7258 16.831C89.6362 17.0034 88.9631 17.9411 88.23 18.9147C87.1522 20.346 86.8645 20.6483 86.7268 20.4935C86.0891 19.7769 84.0757 17.1624 83.9064 16.8312C83.7391 16.5042 83.6994 15.6696 83.6987 12.4661C83.6979 8.81194 83.6779 8.48699 83.4405 8.26782C83.232 8.07534 82.8717 8.03027 81.5411 8.03027H79.899L79.9052 12.4439ZM15.3095 9.47018C18.2551 10.3628 21.9029 12.2185 23.9778 13.8797C25.3108 14.947 25.6081 16.1386 24.8396 17.3344C24.4537 17.9349 21.8957 19.6903 19.9961 20.6583C18.2229 21.5618 16.0746 22.3913 14.4173 22.8123C13.3114 23.0932 13.0683 23.1107 12.3306 22.9626C11.0329 22.7022 8.37535 21.7276 6.59379 20.8591C4.64818 19.9104 1.96248 18.1187 1.44119 17.4217C1.1913 17.0874 1.0416 16.6793 0.997556 16.2123C0.896533 15.1387 1.35845 14.4507 2.90715 13.3685C4.36748 12.3483 6.6194 11.1105 8.21185 10.4528C10.1451 9.65433 12.236 9.04862 13.0829 9.04159C13.5707 9.03757 14.4237 9.20163 15.3095 9.47018ZM56.4417 11.7103C56.8454 11.9187 57.5476 12.3807 58.0022 12.7371C58.5694 13.1818 58.9162 13.5868 59.1073 14.0274C59.3436 14.572 59.3783 14.9142 59.3358 16.2769C59.2922 17.6802 59.2439 17.9461 58.9551 18.3754C58.5898 18.918 57.3823 19.8679 56.4019 20.3839C55.5155 20.8505 54.4477 20.836 53.5161 20.345C52.4993 19.809 51.3329 18.8789 50.9952 18.3351C50.7556 17.949 50.6947 17.5797 50.6537 16.2674C50.6116 14.9143 50.6465 14.5714 50.8825 14.0274C51.0736 13.5867 51.4203 13.182 51.9876 12.7374C53.8714 11.2609 55.0461 10.99 56.4417 11.7103Z" fill="var(--fill-0, #FBF5FF)" fill-opacity="0.2"/>
</svg>
