<svg preserveAspectRatio="none" width="100%" height="100%" overflow="visible" style="display: block;" viewBox="0 0 50 50" fill="none" xmlns="http://www.w3.org/2000/svg">
<g id="LinkedIn">
<circle id="Ellipse 38" cx="25" cy="25" r="24.5" stroke="var(--stroke-0, #8532F2)"/>
<g id="Frame 93">
<path id="Vector" d="M18.1641 19.3083C19.3588 19.3083 20.3273 18.3397 20.3273 17.145C20.3273 15.9503 19.3588 14.9817 18.1641 14.9817C16.9693 14.9817 16.0008 15.9503 16.0008 17.145C16.0008 18.3397 16.9693 19.3083 18.1641 19.3083Z" fill="var(--fill-0, #39D353)"/>
<path id="Vector_2" d="M22.37 20.9471V32.9488H26.0964V27.0138C26.0964 25.4476 26.391 23.931 28.3328 23.931C30.2479 23.931 30.2716 25.7215 30.2716 27.1126V32.9498H34V26.3681C34 23.1351 33.3039 20.6505 29.5252 20.6505C27.7109 20.6505 26.4948 21.6461 25.9975 22.5883H25.947V20.9471H22.37ZM16.2974 20.9471H20.0297V32.9488H16.2974V20.9471Z" fill="var(--fill-0, #39D353)"/>
</g>
</g>
</svg>
