<svg preserveAspectRatio="none" width="100%" height="100%" overflow="visible" style="display: block;" viewBox="0 0 110 21" fill="none" xmlns="http://www.w3.org/2000/svg">
<path id="s_8FBE74AB5A1A6464C9748AB9DDBC694AB94C81E1C349407F830A52A036B265AF_1708122783646_Domestika++Plau+22.11.22-31 1 (Traced)" fill-rule="evenodd" clip-rule="evenodd" d="M41.4371 0.0445602C40.8273 0.137866 40.4803 0.277321 40.2279 0.530543C40.0992 0.659736 39.9477 0.892938 39.8914 1.04876C39.7487 1.4432 39.6962 2.43771 39.7902 2.96613C39.9218 3.70596 40.1746 4.04771 40.7555 4.27083C41.0798 4.39537 41.2598 4.41079 42.6724 4.43491C44.3443 4.46343 44.8931 4.41262 45.3799 4.18426C45.9614 3.91153 46.206 3.19498 46.1454 1.94253C46.1184 1.38295 46.0811 1.18589 45.9489 0.903139C45.7606 0.50045 45.4491 0.263156 44.9204 0.119797C44.514 0.00961823 42.0179 -0.0443384 41.4371 0.0445602ZM104.385 0.974471C104.29 1.0776 104.278 1.45246 104.263 4.73629L104.246 8.38353L103.992 7.97725C103.639 7.41137 102.93 6.70157 102.388 6.3704C101.773 5.99498 101.175 5.78406 100.395 5.6674C99.2701 5.49905 98.0776 5.65305 97.1742 6.08331C96.2351 6.53045 95.4808 7.27009 94.9887 8.22613C94.5261 9.12487 94.1939 10.3377 94.0574 11.6259C93.9739 12.4144 93.9748 14.155 94.0592 14.9718C94.1445 15.7982 94.3383 16.7397 94.5556 17.3834C94.7798 18.0479 95.1987 18.8415 95.5686 19.3026C95.9412 19.767 96.635 20.3145 97.1609 20.559C97.8069 20.8594 98.2551 20.9521 99.2377 20.9886C99.942 21.0147 100.265 20.9984 100.684 20.9156C101.654 20.7242 102.38 20.3657 103.098 19.7244C103.325 19.5212 103.684 19.0983 103.895 18.7847L104.278 18.2146V19.3868C104.278 20.5267 104.282 20.5617 104.421 20.657C104.545 20.7418 104.914 20.755 107.153 20.755C109.657 20.755 109.747 20.7509 109.871 20.6291C109.999 20.5043 110 20.4193 110 10.7857C110 1.45158 109.995 1.06419 109.882 0.964084C109.777 0.870716 109.491 0.859885 107.128 0.859885C104.66 0.859885 104.484 0.867188 104.385 0.974471ZM0.142918 1.20975L0 1.30771L0.000384546 7.52143C0.000770286 14.1352 0.00559404 14.2549 0.319072 15.4573C0.503969 16.1664 0.888228 17.0677 1.24433 17.6272C1.64466 18.2562 2.38149 19.0172 2.98742 19.4274C3.61361 19.8513 4.63556 20.3265 5.36821 20.5344C5.68644 20.6248 6.29398 20.7603 6.71829 20.8355C7.3934 20.9552 7.72269 20.9725 9.35418 20.9734C10.998 20.9743 11.3099 20.9582 11.9901 20.8366C13.0624 20.6449 13.8077 20.4221 14.5773 20.0631C15.4348 19.663 16.0938 19.2118 16.634 18.6548C17.6171 17.6412 18.2113 16.439 18.5276 14.8236C18.6634 14.1296 18.6673 13.9629 18.6904 7.75393C18.7108 2.24833 18.7014 1.37817 18.62 1.26912C18.5288 1.14704 18.4409 1.14263 15.7553 1.12551L12.9847 1.10782L12.8249 1.26434L12.6651 1.42079L12.664 7.48352C12.6628 14.0424 12.6645 14.0059 12.3152 14.729C12.0838 15.208 11.7114 15.5992 11.2714 15.8255C10.7101 16.1139 10.2999 16.1906 9.32203 16.1896C8.6097 16.1889 8.37344 16.164 8.00409 16.0506C7.44046 15.8775 7.03171 15.6257 6.73765 15.2703C6.42931 14.8976 6.31584 14.6642 6.16823 14.0991C6.04865 13.6413 6.04325 13.3561 6.04325 7.52067V1.42079L5.88542 1.26629L5.72765 1.11172H3.00671C0.648103 1.11172 0.26674 1.12476 0.142918 1.20975ZM31.7914 5.64845C30.7923 5.78035 29.7538 6.16818 28.9246 6.7192C28.4537 7.03211 27.7739 7.75608 27.5408 8.19295C27.4388 8.38416 27.3336 8.54068 27.3071 8.5408C27.2806 8.54087 27.2589 7.99047 27.2589 7.31769C27.2589 6.28962 27.2428 6.07871 27.1579 5.99554C27.0693 5.90885 26.7299 5.89663 24.4034 5.89663C21.9144 5.89663 21.7433 5.90375 21.6435 6.01178C21.5458 6.11749 21.5371 6.71479 21.5371 13.3151C21.5371 20.4193 21.5386 20.5047 21.6657 20.6291C21.7901 20.7509 21.88 20.755 24.4202 20.755C26.8687 20.755 27.0532 20.7474 27.151 20.6415C27.2459 20.5389 27.2576 20.0463 27.2735 15.5052L27.2911 10.4823L27.4975 10.3017C27.611 10.2024 27.828 10.0848 27.9797 10.0406C28.1527 9.99 28.6386 9.95953 29.284 9.95877C30.1965 9.95764 30.3453 9.9725 30.602 10.0899C30.7611 10.1628 30.9751 10.3044 31.0775 10.4047C31.18 10.505 31.3246 10.7146 31.399 10.8704C31.5316 11.1483 31.5348 11.2443 31.5679 15.8442C31.5865 18.424 31.6082 20.5397 31.6162 20.546C31.6241 20.5521 31.6761 20.6017 31.7316 20.6561C31.8202 20.7428 32.1553 20.7549 34.4479 20.7541C35.8863 20.7535 37.0949 20.7323 37.1338 20.7069C37.3455 20.5684 37.3524 20.4041 37.3518 15.5178C37.3514 12.6882 37.3232 10.339 37.2845 9.90702C37.2006 8.96981 36.9772 8.10053 36.6759 7.53906C36.347 6.92615 35.783 6.39231 35.1363 6.08186C34.8524 5.94555 34.4086 5.79149 34.1501 5.73949C33.5456 5.61785 32.3676 5.57239 31.7914 5.64845ZM59.0503 5.61986C58.5626 5.69057 57.8563 5.86144 57.4752 6.00089C56.6171 6.31494 55.6384 6.99911 55.1678 7.61391C55.0294 7.7948 54.8271 8.1128 54.7183 8.32057L54.5205 8.69832L54.5192 7.43744C54.5181 6.39962 54.5001 6.15175 54.4177 6.03659L54.3177 5.89663H51.6579C49.3256 5.89663 48.9856 5.90885 48.897 5.99554C48.8064 6.08438 48.796 6.83536 48.796 13.3206C48.796 20.2411 48.801 20.5511 48.9136 20.6508C49.0189 20.7442 49.3031 20.755 51.6459 20.755C54.175 20.755 54.2649 20.7509 54.3892 20.6291C54.5156 20.5053 54.5178 20.4193 54.5178 15.5064C54.5178 10.6066 54.5203 10.5065 54.6463 10.3497C54.7169 10.2617 54.9122 10.1419 55.0802 10.0832C55.4882 9.94101 56.8272 9.88208 57.273 9.98679C57.7529 10.0995 58.0967 10.3703 58.3005 10.7961L58.4717 11.1537L58.4873 15.7183C58.496 18.2288 58.5177 20.3446 58.5357 20.4201C58.5536 20.4956 58.6137 20.6019 58.6692 20.6562C58.7576 20.7428 59.0962 20.755 61.4014 20.755C63.947 20.755 64.0369 20.7509 64.1613 20.6291C64.2877 20.5053 64.2899 20.4193 64.2899 15.5064C64.2899 10.5945 64.2921 10.5069 64.4193 10.3486C64.4905 10.26 64.7002 10.1358 64.8854 10.0725C65.1516 9.98157 65.4175 9.95751 66.1558 9.95751C67.0291 9.95751 67.1103 9.96784 67.4095 10.1176C67.7954 10.3106 68.1051 10.7266 68.206 11.1873C68.2525 11.3997 68.2759 12.9885 68.2759 15.9459C68.2759 20.397 68.2838 20.5691 68.4944 20.7069C68.5333 20.7323 69.7385 20.7535 71.1727 20.7541C73.3247 20.7549 73.802 20.7394 73.905 20.6656C74.0269 20.5783 74.0298 20.448 74.0298 15.078C74.0298 10.0253 74.0204 9.53449 73.9137 9.02099C73.7736 8.34619 73.5451 7.73322 73.2868 7.3391C73.0335 6.95253 72.4648 6.41108 72.0851 6.195C71.618 5.92918 70.867 5.72041 70.0753 5.63636C69.518 5.57718 69.2124 5.57699 68.6982 5.63548C68.3347 5.6769 67.8253 5.76826 67.5662 5.83859C66.9666 6.00127 66.2838 6.31009 65.7607 6.6551C65.184 7.03544 64.5535 7.68323 64.2951 8.16084L64.0753 8.56706L63.9622 8.24136C63.7627 7.66648 63.3813 7.03531 63.0195 6.68092C62.5893 6.25959 61.8232 5.87472 61.1397 5.73659C60.6521 5.63812 59.4051 5.56843 59.0503 5.61986ZM83.1937 5.65204C82.4583 5.71594 81.7228 5.85735 81.0526 6.06373C79.5707 6.52012 78.3754 7.33066 77.5283 8.45347C76.9242 9.25432 76.481 10.3729 76.2715 11.6252C76.1387 12.419 76.1387 14.1067 76.2715 14.9006C76.5523 16.5795 77.1098 17.7334 78.1376 18.763C79.1465 19.7738 80.7095 20.5085 82.5226 20.8242C83.107 20.926 83.6597 20.9652 84.8645 20.9901C86.5831 21.0257 87.8881 20.9536 89.0527 20.7586C90.014 20.5976 90.8371 20.3459 91.0088 20.1603C91.1115 20.0493 91.2003 19.727 91.3785 18.818C91.5075 18.1601 91.6131 17.5662 91.6131 17.4983C91.6131 17.4303 91.5602 17.3279 91.4955 17.2706C91.3901 17.1771 91.0998 17.1664 88.6736 17.1664C87.1862 17.1664 85.6696 17.1366 85.3034 17.1002C84.032 16.9741 83.3601 16.75 82.8369 16.2777C82.6722 16.1289 82.4776 15.8927 82.4044 15.7526C82.2887 15.5311 82.1012 14.9591 82.099 14.8211C82.0985 14.7952 84.1739 14.7738 86.711 14.7736C91.2279 14.7735 91.3282 14.7708 91.5371 14.6461C91.8407 14.4648 91.9865 14.0958 92.0356 13.3844C92.0804 12.7349 91.9869 11.5567 91.8312 10.8105C91.6072 9.73784 91.133 8.70317 90.5177 7.94483C90.0831 7.40917 89.659 7.05339 88.976 6.65145C88.0658 6.11573 86.9231 5.78224 85.5426 5.64939C84.7538 5.57353 84.0884 5.57422 83.1937 5.65204ZM40.2233 6.01178C40.1256 6.11749 40.1169 6.71479 40.1169 13.3151C40.1169 20.4193 40.1184 20.5047 40.2455 20.6291C40.3699 20.7509 40.4597 20.755 43 20.755C45.5879 20.755 45.6277 20.7532 45.7484 20.6225C45.8673 20.4938 45.8708 20.2818 45.8708 13.2826C45.8708 6.22087 45.8683 6.07355 45.746 5.98597C45.6431 5.91225 45.159 5.89663 42.9755 5.89663C40.494 5.89663 40.3231 5.90381 40.2233 6.01178ZM85.6209 9.42141C86.2862 9.70435 86.6256 10.3384 86.7061 11.4486L86.7463 12.0037H84.3861H82.026L82.0682 11.7046C82.2194 10.6336 82.6015 9.88567 83.1746 9.53883C83.5599 9.30563 83.9382 9.23235 84.6376 9.25545C85.1324 9.27176 85.359 9.31004 85.6209 9.42141ZM103.36 9.83808C103.766 9.97118 104.078 10.2085 104.189 10.4675C104.26 10.6353 104.278 11.1869 104.278 13.2136C104.278 14.6876 104.251 15.8435 104.214 15.9734C104.132 16.261 103.81 16.5847 103.442 16.7472C103.041 16.9249 102.112 16.9656 101.624 16.8268C101.161 16.6949 100.622 16.2263 100.429 15.7868C100.139 15.1246 100.074 14.6893 100.071 13.3573C100.068 12.3414 100.09 12.0008 100.187 11.5945C100.427 10.587 100.817 10.0876 101.57 9.8241C101.908 9.70611 102.983 9.71455 103.36 9.83808Z" fill="var(--fill-0, #FBF5FF)" fill-opacity="0.2"/>
</svg>
