<svg preserveAspectRatio="none" width="100%" height="100%" overflow="visible" style="display: block;" viewBox="0 0 496 352" fill="none" xmlns="http://www.w3.org/2000/svg">
<g id="Frame 139" filter="url(#filter0_d_2_46)">
<rect x="56" y="52" width="384" height="240" rx="16" fill="url(#paint0_linear_2_46)"/>
<rect x="57" y="53" width="382" height="238" rx="15" stroke="var(--stroke-0, #37CB50)" stroke-opacity="0.7" stroke-width="2"/>
<path id="Vector 1981" d="M138 75V199" stroke="url(#paint1_linear_2_46)"/>
<path id="Vector 1986" d="M76 137L200 137" stroke="url(#paint2_linear_2_46)"/>
<path id="Vector 1987" d="M168 152V276" stroke="url(#paint3_linear_2_46)"/>
<path id="Vector 1988" d="M106 214L230 214" stroke="url(#paint4_linear_2_46)"/>
<path id="Vector 1989" d="M336 152V276" stroke="url(#paint5_linear_2_46)"/>
<path id="Vector 1990" d="M274 214L398 214" stroke="url(#paint6_linear_2_46)"/>
<path id="Vector 1991" d="M370 75V199" stroke="url(#paint7_linear_2_46)"/>
<path id="Vector 1992" d="M308 137L432 137" stroke="url(#paint8_linear_2_46)"/>
<path id="Vector 1993" d="M248 68V192" stroke="url(#paint9_linear_2_46)"/>
<path id="Vector 1994" d="M186 130L310 130" stroke="url(#paint10_linear_2_46)"/>
<path id="Vector 1995" d="M248 152V276" stroke="url(#paint11_linear_2_46)"/>
<path id="Vector 1996" d="M186 214L310 214" stroke="url(#paint12_linear_2_46)"/>
<g id="Ellipse 2534" filter="url(#filter1_f_2_46)">
<ellipse cx="248" cy="172" rx="80" ry="20" fill="var(--fill-0, #35C44D)"/>
</g>
<rect id="Rectangle 42620" x="189" y="113" width="118" height="118" rx="27" fill="url(#paint13_linear_2_46)" stroke="var(--stroke-0, #46FF65)" stroke-width="2"/>
<path id="image 31 (Traced)" fill-rule="evenodd" clip-rule="evenodd" d="M247.028 137.125C246.525 137.215 245.912 137.392 245.665 137.52C244.692 138.023 219.875 152.464 219.23 152.902C218.361 153.492 217.589 154.564 217.257 155.642C217.007 156.455 217 156.892 217 172.051C217 188.991 216.977 188.424 217.719 189.695C218.307 190.7 219.18 191.347 222.579 193.296C226.523 195.557 227.337 195.975 228.871 196.532C229.894 196.904 230.239 196.964 231.66 197.014C233.578 197.083 234.802 196.871 236.055 196.253C237.195 195.692 238.269 194.585 238.842 193.382C239.733 191.512 239.704 192.138 239.704 174.953C239.704 160.131 239.694 159.474 239.467 159.268C239.27 159.089 238.924 159.053 237.423 159.054C236.43 159.056 235.53 159.112 235.423 159.18C235.252 159.288 235.22 161.196 235.163 174.63L235.098 189.957L234.709 190.668C233.811 192.31 232.055 192.89 229.955 192.239C228.81 191.884 221.668 187.729 221.448 187.29C221.236 186.865 221.204 157.492 221.415 156.884C221.533 156.546 223.138 155.579 234.551 148.974C242.217 144.537 247.686 141.448 247.877 141.448C248.071 141.447 253.459 144.489 261.223 148.981C270.958 154.613 274.274 156.592 274.361 156.82C274.427 156.996 274.462 163.559 274.443 172.204C274.409 187.089 274.405 187.286 274.149 187.534C273.864 187.809 248.674 202.474 248.115 202.69C247.799 202.812 247.46 202.638 244.266 200.717C242.339 199.559 240.689 198.611 240.599 198.611C240.509 198.611 239.877 198.896 239.194 199.245C238.511 199.593 237.559 200.008 237.078 200.166C236.078 200.494 235.942 200.627 236.283 200.947C236.616 201.259 245.013 206.237 245.916 206.657C246.537 206.946 246.827 206.997 247.877 207C248.567 207.002 249.388 206.923 249.743 206.819C250.592 206.572 276.302 191.642 277.112 190.926C277.872 190.254 278.323 189.564 278.68 188.526C278.945 187.756 278.95 187.529 278.99 172.716C279.018 162.115 278.988 157.399 278.885 156.71C278.7 155.463 278.129 154.272 277.339 153.486C276.78 152.929 268.286 147.915 252.119 138.597C250.024 137.389 249.735 137.272 248.202 137.006C248.059 136.981 247.531 137.035 247.028 137.125ZM252.593 158.29C250.869 158.455 249.026 158.961 247.618 159.656C246.631 160.142 246.19 160.46 245.402 161.252C243.898 162.764 243.335 164.186 243.338 166.464C243.341 168.517 243.826 169.838 245.016 171.031C246.768 172.787 249.054 173.514 255.013 174.21C260.687 174.873 262.728 175.496 263.45 176.784C263.698 177.227 263.729 177.438 263.678 178.32C263.63 179.161 263.552 179.452 263.237 179.965C262.189 181.673 259.785 182.315 254.964 182.176C251.363 182.072 249.854 181.677 248.589 180.508C247.853 179.827 247.416 178.996 247.142 177.753C247.028 177.237 246.877 176.741 246.806 176.652C246.714 176.535 246.139 176.489 244.757 176.489C242.457 176.489 242.427 176.504 242.431 177.702C242.437 179.842 243.235 181.753 244.752 183.256C245.94 184.433 246.831 184.977 248.5 185.544C250.938 186.373 253.78 186.727 256.907 186.59C262.565 186.342 266.218 184.598 267.79 181.396C268.962 179.005 268.851 175.744 267.529 173.784C266.203 171.818 263.486 170.784 257.348 169.911C251.896 169.135 250.061 168.74 249.062 168.128C247.884 167.407 247.855 165.226 249.009 164.099C250.069 163.064 252 162.566 254.956 162.566C259.824 162.566 261.916 163.627 262.811 166.551C263.226 167.909 263.271 167.932 265.46 167.879C267.577 167.828 267.667 167.772 267.534 166.6C267.223 163.855 265.905 161.528 263.923 160.226C261.461 158.608 257.086 157.861 252.593 158.29Z" fill="var(--fill-0, #262527)"/>
<g id="Group 43051">
<foreignObject x="330" y="180" width="96" height="96"><div xmlns="http://www.w3.org/1999/xhtml" style="backdrop-filter:blur(8px);clip-path:url(#bgblur_0_2_46_clip_path);height:100%;width:100%"></div></foreignObject><g id="Ellipse 2538" data-figma-bg-blur-radius="16">
<circle cx="378" cy="228" r="32" fill="var(--fill-0, white)" fill-opacity="0.1"/>
<circle cx="378" cy="228" r="31" stroke="var(--stroke-0, white)" stroke-opacity="0.3" stroke-width="2"/>
</g>
<path id="Vector" d="M382.021 225.414L373.414 234.021L372 232.607L380.607 224H373.021V222H384.021V233H382.021V225.414Z" fill="var(--fill-0, white)"/>
</g>
<g id="Group 43052">
<foreignObject x="330" y="180" width="96" height="96"><div xmlns="http://www.w3.org/1999/xhtml" style="backdrop-filter:blur(8px);clip-path:url(#bgblur_1_2_46_clip_path);height:100%;width:100%"></div></foreignObject><g id="Ellipse 2538_2" data-figma-bg-blur-radius="16">
<circle cx="378" cy="228" r="32" fill="var(--fill-0, white)" fill-opacity="0.1"/>
<circle cx="378" cy="228" r="31" stroke="var(--stroke-0, white)" stroke-opacity="0.3" stroke-width="2"/>
</g>
<path id="Vector_2" d="M382.021 225.414L373.414 234.021L372 232.607L380.607 224H373.021V222H384.021V233H382.021V225.414Z" fill="var(--fill-0, white)"/>
</g>
</g>
<defs>
<filter id="filter0_d_2_46" x="0" y="0" width="496" height="352" filterUnits="userSpaceOnUse" color-interpolation-filters="sRGB">
<feFlood flood-opacity="0" result="BackgroundImageFix"/>
<feColorMatrix in="SourceAlpha" type="matrix" values="0 0 0 0 0 0 0 0 0 0 0 0 0 0 0 0 0 0 127 0" result="hardAlpha"/>
<feOffset dy="4"/>
<feGaussianBlur stdDeviation="28"/>
<feComposite in2="hardAlpha" operator="out"/>
<feColorMatrix type="matrix" values="0 0 0 0 0 0 0 0 0 0 0 0 0 0 0 0 0 0 0.4 0"/>
<feBlend mode="normal" in2="BackgroundImageFix" result="effect1_dropShadow_2_46"/>
<feBlend mode="normal" in="SourceGraphic" in2="effect1_dropShadow_2_46" result="shape"/>
</filter>
<filter id="filter1_f_2_46" x="68" y="52" width="360" height="240" filterUnits="userSpaceOnUse" color-interpolation-filters="sRGB">
<feFlood flood-opacity="0" result="BackgroundImageFix"/>
<feBlend mode="normal" in="SourceGraphic" in2="BackgroundImageFix" result="shape"/>
<feGaussianBlur stdDeviation="50" result="effect1_foregroundBlur_2_46"/>
</filter>
<clipPath id="bgblur_0_2_46_clip_path" transform="translate(-330 -180)"><circle cx="378" cy="228" r="32"/>
</clipPath><clipPath id="bgblur_1_2_46_clip_path" transform="translate(-330 -180)"><circle cx="378" cy="228" r="32"/>
</clipPath><linearGradient id="paint0_linear_2_46" x1="248" y1="52" x2="248" y2="292" gradientUnits="userSpaceOnUse">
<stop stop-color="#113F19"/>
<stop offset="1" stop-color="#061B09"/>
</linearGradient>
<linearGradient id="paint1_linear_2_46" x1="138.5" y1="75" x2="138.5" y2="199" gradientUnits="userSpaceOnUse">
<stop stop-color="#37CD50" stop-opacity="0"/>
<stop offset="0.49" stop-color="#37CD50"/>
<stop offset="1" stop-color="#37CD50" stop-opacity="0"/>
</linearGradient>
<linearGradient id="paint2_linear_2_46" x1="76" y1="136.5" x2="200" y2="136.5" gradientUnits="userSpaceOnUse">
<stop stop-color="#37CD50" stop-opacity="0"/>
<stop offset="0.49" stop-color="#37CD50"/>
<stop offset="1" stop-color="#37CD50" stop-opacity="0"/>
</linearGradient>
<linearGradient id="paint3_linear_2_46" x1="168.5" y1="152" x2="168.5" y2="276" gradientUnits="userSpaceOnUse">
<stop stop-color="#37CD50" stop-opacity="0"/>
<stop offset="0.49" stop-color="#37CD50"/>
<stop offset="1" stop-color="#37CD50" stop-opacity="0"/>
</linearGradient>
<linearGradient id="paint4_linear_2_46" x1="106" y1="213.5" x2="230" y2="213.5" gradientUnits="userSpaceOnUse">
<stop stop-color="#37CD50" stop-opacity="0"/>
<stop offset="0.49" stop-color="#37CD50"/>
<stop offset="1" stop-color="#37CD50" stop-opacity="0"/>
</linearGradient>
<linearGradient id="paint5_linear_2_46" x1="336.5" y1="152" x2="336.5" y2="276" gradientUnits="userSpaceOnUse">
<stop stop-color="#37CD50" stop-opacity="0"/>
<stop offset="0.49" stop-color="#37CD50"/>
<stop offset="1" stop-color="#37CD50" stop-opacity="0"/>
</linearGradient>
<linearGradient id="paint6_linear_2_46" x1="274" y1="213.5" x2="398" y2="213.5" gradientUnits="userSpaceOnUse">
<stop stop-color="#37CD50" stop-opacity="0"/>
<stop offset="0.49" stop-color="#37CD50"/>
<stop offset="1" stop-color="#37CD50" stop-opacity="0"/>
</linearGradient>
<linearGradient id="paint7_linear_2_46" x1="370.5" y1="75" x2="370.5" y2="199" gradientUnits="userSpaceOnUse">
<stop stop-color="#37CD50" stop-opacity="0"/>
<stop offset="0.49" stop-color="#37CD50"/>
<stop offset="1" stop-color="#37CD50" stop-opacity="0"/>
</linearGradient>
<linearGradient id="paint8_linear_2_46" x1="308" y1="136.5" x2="432" y2="136.5" gradientUnits="userSpaceOnUse">
<stop stop-color="#37CD50" stop-opacity="0"/>
<stop offset="0.49" stop-color="#37CD50"/>
<stop offset="1" stop-color="#37CD50" stop-opacity="0"/>
</linearGradient>
<linearGradient id="paint9_linear_2_46" x1="248.5" y1="68" x2="248.5" y2="192" gradientUnits="userSpaceOnUse">
<stop stop-color="#37CD50" stop-opacity="0"/>
<stop offset="0.49" stop-color="#37CD50"/>
<stop offset="1" stop-color="#37CD50" stop-opacity="0"/>
</linearGradient>
<linearGradient id="paint10_linear_2_46" x1="186" y1="129.5" x2="310" y2="129.5" gradientUnits="userSpaceOnUse">
<stop stop-color="#37CD50" stop-opacity="0"/>
<stop offset="0.49" stop-color="#37CD50"/>
<stop offset="1" stop-color="#37CD50" stop-opacity="0"/>
</linearGradient>
<linearGradient id="paint11_linear_2_46" x1="248.5" y1="152" x2="248.5" y2="276" gradientUnits="userSpaceOnUse">
<stop stop-color="#37CD50" stop-opacity="0"/>
<stop offset="0.49" stop-color="#37CD50"/>
<stop offset="1" stop-color="#37CD50" stop-opacity="0"/>
</linearGradient>
<linearGradient id="paint12_linear_2_46" x1="186" y1="213.5" x2="310" y2="213.5" gradientUnits="userSpaceOnUse">
<stop stop-color="#37CD50" stop-opacity="0"/>
<stop offset="0.49" stop-color="#37CD50"/>
<stop offset="1" stop-color="#37CD50" stop-opacity="0"/>
</linearGradient>
<linearGradient id="paint13_linear_2_46" x1="248" y1="112" x2="248" y2="232" gradientUnits="userSpaceOnUse">
<stop stop-color="#39D353"/>
<stop offset="1" stop-color="#1D6D2B"/>
</linearGradient>
</defs>
</svg>
