<svg preserveAspectRatio="none" width="100%" height="100%" overflow="visible" style="display: block;" viewBox="0 0 64.0007 64.0015" fill="none" xmlns="http://www.w3.org/2000/svg">
<g id="Group">
<path id="Vector" d="M49.2308 64.0007H64.0007V49.2308H49.2308V64.0007ZM54.1558 54.1525H59.0758V59.0774H54.1558V54.1525Z" fill="var(--fill-0, #39D353)"/>
<path id="Vector_2" d="M63.9995 19.6915H59.0746V44.3063H63.9995V19.6915Z" fill="var(--fill-0, #39D353)"/>
<path id="Vector_3" d="M59.0752 14.7712H54.1552V19.6912H59.0752V14.7712Z" fill="var(--fill-0, #39D353)"/>
<path id="Vector_4" d="M54.1519 24.616H49.2318V29.536H54.1519V24.616Z" fill="var(--fill-0, #39D353)"/>
<path id="Vector_5" d="M4.92494 49.2308H2.6087e-05V54.1508H4.92494V49.2308Z" fill="var(--fill-0, #39D353)"/>
<path id="Vector_6" d="M4.92494 39.386H2.6087e-05V44.306H4.92494V39.386Z" fill="var(--fill-0, #39D353)"/>
<path id="Vector_7" d="M4.92494 59.0765H2.6087e-05V64.0015H4.92494V59.0765Z" fill="var(--fill-0, #39D353)"/>
<path id="Vector_8" d="M9.84543 54.1522H4.92543V59.0771H9.84543V54.1522Z" fill="var(--fill-0, #39D353)"/>
<path id="Vector_9" d="M4.92494 19.6915H2.6087e-05V34.4614H4.92494V19.6915Z" fill="var(--fill-0, #39D353)"/>
<path id="Vector_10" d="M19.6941 59.0765H14.7692V64.0015H19.6941V59.0765Z" fill="var(--fill-0, #39D353)"/>
<path id="Vector_11" d="M44.311 59.0765H39.3861V64.0015H44.311V59.0765Z" fill="var(--fill-0, #39D353)"/>
<path id="Vector_12" d="M24.6146 54.1522H19.6946V59.0771H24.6146V54.1522Z" fill="var(--fill-0, #39D353)"/>
<path id="Vector_13" d="M39.3856 54.1522H34.4607V59.0771H39.3856V54.1522Z" fill="var(--fill-0, #39D353)"/>
<path id="Vector_14" d="M29.5409 49.2308H24.6159V54.1508H29.5409V49.2308Z" fill="var(--fill-0, #39D353)"/>
<path id="Vector_15" d="M44.311 49.2308H39.3861V54.1508H44.311V49.2308Z" fill="var(--fill-0, #39D353)"/>
<path id="Vector_16" d="M54.1559 39.386H39.3861V44.306H54.1559V39.386Z" fill="var(--fill-0, #39D353)"/>
<path id="Vector_17" d="M63.9995 0H59.0746V14.7698H63.9995V0Z" fill="var(--fill-0, #39D353)"/>
<path id="Vector_18" d="M14.7698 0H0V14.7698H14.7698V0ZM9.84492 9.84656H4.92492V4.92164H9.84492V9.84656Z" fill="var(--fill-0, #39D353)"/>
<g id="Group_2">
<path id="Vector_19" d="M14.7697 24.6166H24.6163V19.6917H14.7697H9.84483V39.3864V44.3064H24.6163V39.3864H14.7697V24.6166Z" fill="var(--fill-0, #39D353)"/>
<path id="Vector_20" d="M29.5409 24.616H24.616V39.3858H29.5409V24.616Z" fill="var(--fill-0, #39D353)"/>
</g>
<path id="Vector_21" d="M49.231 19.6915H39.3861V24.6164H49.231V19.6915Z" fill="var(--fill-0, #39D353)"/>
<path id="Vector_22" d="M39.3856 24.616H34.4607V39.3858H39.3856V24.616Z" fill="var(--fill-0, #39D353)"/>
<path id="Vector_23" d="M49.231 9.84668H19.6946V14.7716H49.231H54.1559V9.84668H49.231Z" fill="var(--fill-0, #39D353)"/>
<path id="Vector_24" d="M24.6146 0H19.6946V4.92H24.6146V0Z" fill="var(--fill-0, #39D353)"/>
<path id="Vector_25" d="M54.1558 0H49.2308V4.92H54.1558V0Z" fill="var(--fill-0, #39D353)"/>
<path id="Vector_26" d="M44.3102 0H29.5403V4.92H44.3102V0Z" fill="var(--fill-0, #39D353)"/>
</g>
</svg>
