<svg preserveAspectRatio="none" width="100%" height="100%" overflow="visible" style="display: block;" viewBox="0 0 24 20" fill="none" xmlns="http://www.w3.org/2000/svg">
<path id="Vector" d="M4 9.3333L0 7L12 0L24 7V15.5H22V8.1667L20 9.3333V16.0113L19.7774 16.2864C17.9457 18.5499 15.1418 20 12 20C8.85817 20 6.05429 18.5499 4.22263 16.2864L4 16.0113V9.3333ZM6 10.5V15.2917C7.46721 16.954 9.61112 18 12 18C14.3889 18 16.5328 16.954 18 15.2917V10.5L12 14L6 10.5ZM3.96927 7L12 11.6846L20.0307 7L12 2.31541L3.96927 7Z" fill="var(--fill-0, white)"/>
</svg>
